<?xml version="1.0" encoding="UTF-8"?>
<svg id="Layer_1" data-name="Layer 1" xmlns="http://www.w3.org/2000/svg" viewBox="0 0 400 400">
  <defs>
    <style>
      .cls-1 {
        fill: none;
      }

      .cls-1, .cls-2, .cls-3 {
        stroke-width: 0px;
      }

      .cls-2 {
        fill: #ffdf25;
      }

      .cls-3 {
        fill: #231f20;
      }
    </style>
  </defs>
  <g>
    <g>
      <path class="cls-3" d="M320.26,225.12c-9.39,2.9-20.04.63-27.47-6.8-10.7-10.7-10.7-28.05,0-38.75,10.7-10.7,28.05-10.7,38.75,0,7.43,7.43,9.7,18.08,6.8,27.47l13.87,13.87c9.52-17.34,6.94-39.56-7.76-54.25-17.83-17.83-46.75-17.83-64.58,0-17.83,17.83-17.83,46.75,0,64.58,14.69,14.69,36.91,17.28,54.25,7.76l-13.87-13.87Z"/>
      <g>
        <polygon class="cls-2" points="330.5 201.78 324.04 208.24 323.4 208.88 352.84 238.33 353.49 237.68 359.95 231.23 330.5 201.78"/>
        <polygon class="cls-2" points="321.46 210.82 315 217.28 344.45 246.73 350.91 240.27 351.55 239.62 322.1 210.17 321.46 210.82"/>
      </g>
    </g>
    <g>
      <path class="cls-3" d="M68.35,211.67c0-2.33-.93-4.25-2.78-5.77-1.85-1.52-4.99-2.94-9.42-4.27-4.85-1.33-8.53-2.99-11.06-4.98-2.53-1.99-3.79-4.68-3.79-8.09s1.41-6.33,4.24-8.56c2.83-2.24,6.44-3.35,10.82-3.35,4.62,0,8.33,1.26,11.14,3.79,2.81,2.53,4.17,5.73,4.09,9.62l-.06.19h-3.49c0-2.99-1.09-5.48-3.26-7.46-2.17-1.98-4.98-2.96-8.41-2.96s-6.31.84-8.31,2.51-3.01,3.73-3.01,6.16.91,4.21,2.73,5.69c1.82,1.49,5.03,2.88,9.62,4.16,4.78,1.39,8.43,3.11,10.95,5.15,2.52,2.04,3.77,4.74,3.77,8.11,0,3.54-1.47,6.38-4.41,8.53-2.94,2.15-6.65,3.23-11.12,3.23s-8.37-1.14-11.7-3.42c-3.33-2.28-4.94-5.6-4.83-9.97l.06-.19h3.46c0,3.51,1.32,6.13,3.96,7.85,2.64,1.72,5.66,2.57,9.05,2.57s6.3-.8,8.48-2.39c2.18-1.59,3.28-3.64,3.28-6.16Z"/>
      <path class="cls-3" d="M112.17,180.47h-15.47v42.23h-3.71v-42.23h-16v-3.18h35.19v3.18Z"/>
      <path class="cls-3" d="M151.38,177.29v30.16c0,4.99-1.53,8.89-4.59,11.7-3.06,2.81-6.99,4.21-11.79,4.21s-8.61-1.41-11.62-4.23c-3-2.82-4.51-6.71-4.51-11.68v-30.16h3.74v30.16c0,3.91,1.16,7.01,3.48,9.31,2.32,2.3,5.29,3.45,8.91,3.45s6.74-1.14,9.11-3.43c2.37-2.29,3.56-5.4,3.56-9.33v-30.16h3.71Z"/>
      <path class="cls-3" d="M162.33,222.71v-45.42h13.85c5.55,0,10.14,1.85,13.77,5.55,3.63,3.7,5.44,8.45,5.44,14.26v5.83c0,5.8-1.81,10.55-5.44,14.24-3.63,3.69-8.22,5.54-13.77,5.54h-13.85ZM166.07,180.47v39.08h10.11c4.49,0,8.19-1.57,11.1-4.71,2.91-3.14,4.37-7.11,4.37-11.92v-5.93c0-4.74-1.46-8.68-4.38-11.82-2.92-3.14-6.62-4.71-11.09-4.71h-10.11Z"/>
      <path class="cls-3" d="M210.02,222.71h-3.74v-45.42h3.74v45.42Z"/>
      <path class="cls-3" d="M255.91,203.71c0,5.86-1.61,10.61-4.82,14.22-3.21,3.62-7.52,5.43-12.93,5.43s-9.57-1.81-12.74-5.43c-3.17-3.62-4.76-8.36-4.76-14.22v-7.39c0-5.84,1.58-10.58,4.74-14.22,3.16-3.64,7.4-5.46,12.73-5.46s9.72,1.82,12.94,5.46c3.22,3.64,4.83,8.38,4.83,14.22v7.39ZM252.2,196.26c0-4.91-1.24-8.86-3.73-11.85-2.49-2.99-5.93-4.49-10.34-4.49s-7.69,1.5-10.11,4.49c-2.41,2.99-3.62,6.95-3.62,11.85v7.45c0,4.95,1.21,8.92,3.63,11.92,2.42,2.99,5.8,4.49,10.12,4.49s7.88-1.49,10.34-4.48c2.46-2.98,3.7-6.96,3.7-11.93v-7.45Z"/>
    </g>
    <rect class="cls-2" x="40.05" y="233.49" width="215.86" height="7.79"/>
    <rect class="cls-2" x="40.05" y="158.73" width="215.86" height="7.79"/>
  </g>
  <rect class="cls-1" width="400" height="400"/>
</svg>