<?xml version="1.0" encoding="UTF-8"?>
<svg id="Layer_1" data-name="Layer 1" xmlns="http://www.w3.org/2000/svg" viewBox="0 0 400 400">
  <defs>
    <style>
      .cls-1 {
        fill: none;
      }

      .cls-1, .cls-2, .cls-3 {
        stroke-width: 0px;
      }

      .cls-2 {
        fill: #231f20;
      }

      .cls-3 {
        fill: #fd0;
      }
    </style>
  </defs>
  <g>
    <g>
      <path class="cls-2" d="M269.27,51.88c-21.04-9.84-44.51-15.35-69.27-15.35-90.28,0-163.48,73.19-163.48,163.47,0,65.45,38.47,121.92,94.02,148.04L269.27,51.88Z"/>
      <path class="cls-3" d="M269.27,51.88l-138.72,296.16c21.08,9.9,44.62,15.44,69.45,15.44,90.29,0,163.48-73.2,163.48-163.48,0-65.53-38.56-122.04-94.21-148.12Z"/>
    </g>
    <g>
      <polygon class="cls-3" points="121.22 180.89 101.86 180.89 101.86 222.76 88.53 222.76 88.53 180.89 69.17 180.89 69.17 168.83 121.22 168.83 121.22 180.89"/>
      <rect class="cls-3" x="158.59" y="168.83" width="13.17" height="53.93"/>
      <polygon class="cls-2" points="234.24 210.7 263.1 210.7 262.94 222.76 221.06 222.76 221.06 168.83 234.24 168.83 234.24 210.7"/>
      <polygon class="cls-2" points="329.4 180.89 310.03 180.89 310.03 222.76 296.69 222.76 296.69 180.89 277.31 180.89 277.31 168.83 329.46 168.83 329.4 180.89"/>
    </g>
    <g>
      <path class="cls-3" d="M88.49,235.35h4.28c.5,0,.99.04,1.48.11.49.07.92.21,1.3.42.37.21.65.51.85.88.19.38.25.88.16,1.51-.09.65-.34,1.19-.77,1.61-.43.43-.95.74-1.57.92v.03c.37.06.69.16.98.32.28.16.52.35.7.6.18.24.31.53.39.85.07.33.08.67.03,1.04-.09.61-.29,1.11-.6,1.52-.31.4-.69.73-1.13.98-.44.25-.93.43-1.46.54-.53.11-1.05.16-1.56.16h-4.7l1.6-11.48ZM89.71,244.68h2.27c.19,0,.39-.02.61-.06.21-.04.4-.12.57-.23.17-.11.33-.25.45-.42.13-.17.21-.38.24-.63.03-.27,0-.49-.11-.66-.11-.17-.26-.29-.45-.38-.19-.09-.4-.15-.64-.18-.23-.03-.45-.05-.66-.05h-1.91l-.37,2.61ZM90.37,239.94h1.83c.19,0,.39-.02.58-.06.19-.05.38-.11.54-.21.17-.1.31-.23.42-.39.11-.16.19-.36.22-.58.03-.24,0-.44-.07-.59-.08-.16-.2-.28-.35-.36-.15-.09-.33-.15-.53-.19-.2-.04-.39-.05-.59-.05h-1.72l-.34,2.45Z"/>
      <path class="cls-3" d="M104.5,235.35h4.44c.58,0,1.13.06,1.64.17.51.11.94.3,1.3.57.36.26.62.62.79,1.07.17.45.21,1.01.11,1.68-.12.81-.43,1.5-.92,2.07-.5.56-1.16.92-1.99,1.07l2.24,4.85h-3.03l-1.76-4.58h-1.25l-.63,4.58h-2.53l1.6-11.48ZM106.37,240.1h1.49c.22,0,.46,0,.72-.02.25-.02.49-.06.7-.15.22-.08.4-.21.56-.38.17-.17.27-.41.31-.73.05-.29.02-.52-.08-.69-.1-.17-.23-.31-.4-.4-.17-.09-.38-.15-.61-.18-.23-.03-.46-.05-.69-.05h-1.65l-.36,2.61Z"/>
      <path class="cls-3" d="M124.29,235.35h2.09l3.39,11.48h-2.85l-.65-2.43h-4.46l-1.3,2.43h-2.79l6.56-11.48ZM124.8,238.69l-1.9,3.56h2.8l-.9-3.56Z"/>
      <path class="cls-3" d="M138.03,235.35h3.44l3.76,7.97h.03l1.12-7.97h2.53l-1.6,11.48h-3.31l-3.87-8.17h-.03l-1.13,8.17h-2.53l1.6-11.48Z"/>
      <path class="cls-3" d="M157.07,235.35h3.79c.92,0,1.77.11,2.57.31.79.21,1.47.54,2.03,1,.56.46.96,1.06,1.21,1.79.26.74.31,1.63.17,2.67-.13.93-.42,1.75-.87,2.46-.45.71-1,1.3-1.66,1.78-.66.48-1.4.85-2.21,1.09-.82.25-1.65.37-2.5.37h-4.13l1.6-11.48ZM158.32,244.49h1.31c.58,0,1.13-.06,1.65-.18.52-.12.98-.32,1.39-.59.4-.28.74-.63,1.02-1.08.27-.45.45-1,.55-1.64.07-.56.04-1.05-.11-1.47-.15-.42-.38-.76-.71-1.03-.32-.27-.72-.47-1.18-.61-.46-.13-.95-.2-1.48-.2h-1.49l-.96,6.81Z"/>
      <path class="cls-2" d="M196.99,238.15c-.17-.26-.43-.45-.76-.58-.34-.12-.66-.18-.97-.18-.18,0-.38.02-.58.06-.21.04-.4.11-.57.2-.18.09-.34.21-.46.36-.13.15-.21.34-.24.55-.03.26.01.47.14.64.12.17.3.31.54.42.23.11.5.22.81.3.31.09.62.18.93.29.31.11.62.24.91.39.3.15.56.34.77.57.22.23.37.52.48.88.1.35.11.77.04,1.27-.09.63-.28,1.19-.59,1.67-.31.47-.69.87-1.13,1.18-.45.32-.95.55-1.51.7-.56.15-1.13.23-1.73.23-.74,0-1.42-.11-2.03-.34-.61-.23-1.15-.59-1.64-1.1l2.09-1.98c.22.34.51.62.87.8.36.19.75.28,1.17.28.21,0,.42-.02.63-.07.22-.05.41-.12.6-.22.18-.1.34-.22.46-.37.12-.15.2-.33.23-.54.06-.34-.04-.62-.28-.82-.24-.2-.55-.37-.93-.51-.38-.14-.79-.28-1.24-.42-.44-.14-.85-.33-1.21-.57-.37-.24-.66-.55-.87-.94-.21-.39-.27-.9-.18-1.54.08-.62.28-1.15.59-1.62.31-.46.69-.85,1.14-1.17.45-.31.96-.55,1.51-.7.55-.16,1.11-.23,1.67-.23.65,0,1.26.09,1.84.28.58.18,1.08.49,1.5.92l-1.99,1.9Z"/>
      <path class="cls-2" d="M203.15,241.08c.13-.92.4-1.75.82-2.49.41-.74.93-1.38,1.56-1.91.62-.52,1.33-.92,2.13-1.2.8-.28,1.64-.42,2.54-.42s1.7.14,2.42.42c.71.28,1.31.68,1.78,1.2.48.52.82,1.16,1.02,1.91.21.74.24,1.58.11,2.49s-.4,1.75-.81,2.49c-.41.75-.93,1.38-1.56,1.91-.63.52-1.34.93-2.13,1.21-.79.28-1.64.42-2.54.42s-1.7-.14-2.42-.42c-.72-.28-1.32-.68-1.79-1.21-.48-.52-.82-1.16-1.02-1.91-.21-.74-.24-1.58-.11-2.49ZM205.77,241.08c-.07.54-.06,1.03.05,1.48.11.45.29.84.56,1.17.26.33.6.59,1.01.77.41.18.89.27,1.43.27s1.04-.09,1.51-.27c.46-.18.87-.44,1.23-.77.35-.33.65-.72.88-1.17.23-.45.39-.94.46-1.48.07-.53.06-1.02-.04-1.47-.11-.45-.29-.85-.56-1.18-.27-.33-.61-.58-1.02-.77-.41-.18-.89-.28-1.43-.28s-1.04.09-1.51.28c-.46.18-.87.44-1.23.77-.35.33-.65.72-.88,1.18-.23.45-.39.95-.46,1.47Z"/>
      <path class="cls-2" d="M221.71,235.35h2.53l-1.28,9.14h4.69l-.33,2.33h-7.21l1.6-11.48Z"/>
      <path class="cls-2" d="M242.57,242.4c-.1.68-.29,1.31-.57,1.88-.28.57-.66,1.07-1.13,1.49-.46.42-1.02.75-1.65.99-.64.24-1.35.36-2.14.36s-1.48-.12-2.06-.36c-.57-.24-1.03-.57-1.38-.99-.34-.42-.58-.92-.7-1.49-.12-.57-.14-1.2-.04-1.88l.99-7.05h2.53l-.97,6.95c-.05.35-.05.68.02.99.07.3.2.57.37.79.18.22.4.39.67.52.27.12.56.18.9.18s.65-.06.95-.18c.3-.12.57-.3.8-.52.23-.22.43-.48.59-.79.16-.3.26-.63.31-.99l.97-6.95h2.53l-.99,7.05Z"/>
      <path class="cls-2" d="M251.37,237.58h-3.28l.31-2.24h9.08l-.31,2.24h-3.27l-1.3,9.24h-2.53l1.3-9.24Z"/>
      <path class="cls-2" d="M262.62,235.35h2.53l-1.61,11.48h-2.53l1.6-11.48Z"/>
      <path class="cls-2" d="M269.59,241.08c.13-.92.4-1.75.82-2.49.41-.74.93-1.38,1.56-1.91.62-.52,1.33-.92,2.13-1.2.8-.28,1.64-.42,2.54-.42s1.7.14,2.42.42c.71.28,1.31.68,1.78,1.2.48.52.82,1.16,1.02,1.91.21.74.24,1.58.11,2.49-.13.92-.4,1.75-.81,2.49-.41.75-.93,1.38-1.56,1.91-.62.52-1.34.93-2.13,1.21-.8.28-1.64.42-2.54.42s-1.7-.14-2.42-.42c-.72-.28-1.32-.68-1.79-1.21-.48-.52-.82-1.16-1.02-1.91-.21-.74-.24-1.58-.11-2.49ZM272.21,241.08c-.07.54-.06,1.03.05,1.48.11.45.29.84.56,1.17.26.33.6.59,1.01.77.41.18.89.27,1.43.27s1.04-.09,1.51-.27c.46-.18.87-.44,1.23-.77.35-.33.65-.72.88-1.17.23-.45.39-.94.46-1.48.07-.53.06-1.02-.04-1.47-.11-.45-.29-.85-.56-1.18-.27-.33-.61-.58-1.02-.77-.41-.18-.89-.28-1.43-.28s-1.04.09-1.51.28c-.46.18-.87.44-1.23.77-.35.33-.65.72-.88,1.18-.23.45-.39.95-.46,1.47Z"/>
      <path class="cls-2" d="M287.41,235.35h3.44l3.76,7.97h.03l1.12-7.97h2.53l-1.6,11.48h-3.31l-3.87-8.17h-.03l-1.13,8.17h-2.53l1.6-11.48Z"/>
      <path class="cls-2" d="M309.79,238.15c-.17-.26-.43-.45-.76-.58-.34-.12-.66-.18-.97-.18-.18,0-.38.02-.58.06-.21.04-.4.11-.57.2-.18.09-.34.21-.46.36-.13.15-.21.34-.24.55-.03.26.01.47.14.64.12.17.3.31.54.42.23.11.5.22.81.3.31.09.62.18.93.29.31.11.62.24.91.39.3.15.56.34.77.57.22.23.37.52.48.88.1.35.11.77.04,1.27-.09.63-.28,1.19-.59,1.67-.31.47-.69.87-1.13,1.18-.45.32-.95.55-1.51.7-.56.15-1.13.23-1.73.23-.74,0-1.42-.11-2.03-.34-.61-.23-1.15-.59-1.64-1.1l2.09-1.98c.22.34.51.62.87.8.36.19.75.28,1.17.28.21,0,.42-.02.63-.07.22-.05.41-.12.6-.22.18-.1.34-.22.46-.37.12-.15.2-.33.23-.54.05-.34-.04-.62-.28-.82-.24-.2-.55-.37-.93-.51-.38-.14-.79-.28-1.24-.42-.44-.14-.85-.33-1.21-.57-.37-.24-.66-.55-.87-.94-.21-.39-.27-.9-.18-1.54.08-.62.28-1.15.59-1.62.31-.46.69-.85,1.14-1.17.45-.31.96-.55,1.51-.7.55-.16,1.11-.23,1.67-.23.65,0,1.26.09,1.84.28.58.18,1.08.49,1.5.92l-1.99,1.9Z"/>
    </g>
  </g>
  <rect class="cls-1" x="0" width="400" height="400"/>
</svg>