<?xml version="1.0" encoding="UTF-8"?>
<svg id="Layer_1" data-name="Layer 1" xmlns="http://www.w3.org/2000/svg" viewBox="0 0 400 400">
  <defs>
    <style>
      .cls-1 {
        fill: #ffdf25;
      }

      .cls-1, .cls-2 {
        stroke-width: 0px;
      }

      .cls-2 {
        fill: #fff;
      }
    </style>
  </defs>
  <g>
    <path class="cls-2" d="M214.99,189.61c-20.02,6.17-42.69,1.34-58.54-14.5-22.8-22.8-22.8-59.77,0-82.57,22.8-22.8,59.77-22.8,82.57,0,15.84,15.84,20.67,38.52,14.5,58.54l29.55,29.55c20.29-36.95,14.78-84.29-16.53-115.61-38-38-99.61-38-137.61,0-38,38-38,99.61,0,137.61,31.31,31.31,78.65,36.82,115.61,16.53l-29.55-29.55Z"/>
    <g>
      <polygon class="cls-1" points="236.82 139.88 223.05 153.64 221.68 155.02 284.43 217.77 285.8 216.39 299.57 202.63 236.82 139.88"/>
      <polygon class="cls-1" points="217.55 159.15 203.79 172.91 266.54 235.66 280.3 221.9 281.68 220.52 218.93 157.77 217.55 159.15"/>
    </g>
  </g>
  <path class="cls-1" d="M125.56,328.54v-3.69h148.88v3.69H125.56Z"/>
  <g>
    <path class="cls-2" d="M58.93,289.88c0,1.56-.21,3.04-.64,4.42-.42,1.38-1.03,2.63-1.82,3.76l4.78,4.87-4.76,3.66-4.6-4.6c-.95.48-1.97.84-3.05,1.08-1.08.24-2.22.36-3.42.36-4.05,0-7.33-1.27-9.84-3.82-2.51-2.55-3.77-5.79-3.77-9.72v-5.74c0-3.92,1.25-7.15,3.76-9.71,2.51-2.56,5.77-3.83,9.81-3.83s7.26,1.28,9.77,3.83c2.51,2.56,3.77,5.79,3.77,9.71v5.74ZM51.54,284.09c0-2.28-.54-4.15-1.61-5.61-1.07-1.46-2.59-2.19-4.55-2.19s-3.53.73-4.59,2.18c-1.06,1.45-1.59,3.33-1.59,5.62v5.79c0,2.31.54,4.19,1.61,5.65,1.07,1.46,2.61,2.19,4.61,2.19s3.45-.73,4.51-2.19c1.07-1.46,1.6-3.35,1.6-5.65v-5.79Z"/>
    <path class="cls-2" d="M108.22,271.05v20.69c0,3.65-1.21,6.51-3.64,8.58-2.43,2.07-5.59,3.1-9.49,3.1s-7.12-1.03-9.56-3.1c-2.44-2.07-3.66-4.93-3.66-8.58v-20.69h7.43v20.69c0,1.97.51,3.46,1.53,4.47,1.02,1.01,2.44,1.51,4.25,1.51s3.2-.5,4.2-1.5c1-1,1.5-2.49,1.5-4.48v-20.69h7.43Z"/>
    <path class="cls-2" d="M157.6,289.88c0,3.93-1.25,7.17-3.74,9.72-2.49,2.55-5.75,3.82-9.76,3.82s-7.33-1.27-9.84-3.82c-2.51-2.55-3.77-5.79-3.77-9.72v-5.74c0-3.92,1.25-7.15,3.76-9.71,2.51-2.56,5.77-3.83,9.81-3.83s7.26,1.28,9.77,3.83c2.51,2.56,3.77,5.79,3.77,9.71v5.74ZM150.21,284.09c0-2.28-.54-4.15-1.61-5.61-1.07-1.46-2.59-2.19-4.55-2.19s-3.53.73-4.59,2.18c-1.06,1.45-1.59,3.33-1.59,5.62v5.79c0,2.31.54,4.19,1.61,5.65,1.07,1.46,2.61,2.19,4.61,2.19s3.45-.73,4.51-2.19c1.07-1.46,1.6-3.35,1.6-5.65v-5.79Z"/>
    <path class="cls-2" d="M201.67,276.75h-8.44v26.21h-7.41v-26.21h-8.28v-5.7h24.13v5.7Z"/>
    <path class="cls-2" d="M230.48,302.96h-7.39v-31.91h7.39v31.91Z"/>
    <path class="cls-2" d="M272.62,289.31h-11.24v7.96h13.48v5.7h-20.89v-31.91h20.91v5.7h-13.5v6.86h11.24v5.7Z"/>
    <path class="cls-2" d="M323.58,302.96h-7.39l-11.68-20.07-.13.04v20.03h-7.41v-31.91h7.41l11.68,20.05.13-.05v-20.01h7.39v31.91Z"/>
    <path class="cls-2" d="M368.18,276.75h-8.44v26.21h-7.41v-26.21h-8.28v-5.7h24.13v5.7Z"/>
  </g>
  <g>
    <path class="cls-2" d="M130.94,360.86l.27.97h.06l.27-.97,4.15-11.39h1.22l-5.14,13.81h-1.08l-5.14-13.81h1.23l4.14,11.39Z"/>
    <path class="cls-2" d="M154.06,356.59h-6.19v5.73h7.16v.96h-8.3v-13.81h8.25v.97h-7.11v5.19h6.19v.97Z"/>
    <path class="cls-2" d="M175.38,363.28h-1.14l-7.84-11.82h-.06v11.82h-1.14v-13.81h1.14l7.84,11.79h.06v-11.79h1.14v13.81Z"/>
    <path class="cls-2" d="M195.8,350.44h-4.7v12.84h-1.13v-12.84h-4.87v-.97h10.7v.97Z"/>
    <path class="cls-2" d="M215.49,349.47v9.17c0,1.52-.46,2.7-1.39,3.56-.93.85-2.12,1.28-3.59,1.28s-2.62-.43-3.53-1.28c-.91-.86-1.37-2.04-1.37-3.55v-9.17h1.14v9.17c0,1.19.35,2.13,1.06,2.83.7.7,1.61,1.05,2.71,1.05s2.05-.35,2.77-1.04c.72-.7,1.08-1.64,1.08-2.84v-9.17h1.13Z"/>
    <path class="cls-2" d="M227.7,357.04v6.24h-1.14v-13.8h4.6c1.48,0,2.61.32,3.4.97.79.65,1.19,1.59,1.19,2.84,0,.73-.21,1.39-.63,1.97-.42.58-1.02,1-1.79,1.27.85.21,1.47.6,1.85,1.15.38.55.56,1.25.56,2.08v1.3c0,.43.05.82.15,1.16.1.34.27.62.5.83v.23h-1.16c-.23-.23-.4-.55-.49-.96-.09-.41-.14-.84-.14-1.28v-1.26c0-.85-.27-1.52-.82-2.01-.55-.49-1.31-.74-2.29-.74h-3.79ZM227.7,356.07h3.33c1.25,0,2.16-.25,2.73-.75.58-.5.86-1.18.86-2.03,0-.91-.29-1.61-.86-2.1-.57-.49-1.44-.73-2.6-.73h-3.46v5.62Z"/>
    <path class="cls-2" d="M254.36,356.59h-6.19v5.73h7.16v.96h-8.3v-13.81h8.25v.97h-7.11v5.19h6.19v.97Z"/>
    <path class="cls-2" d="M273.29,359.92c0-.71-.28-1.29-.84-1.75-.56-.46-1.52-.89-2.86-1.3-1.47-.4-2.59-.91-3.36-1.51-.77-.6-1.15-1.42-1.15-2.46s.43-1.92,1.29-2.6c.86-.68,1.96-1.02,3.29-1.02,1.4,0,2.53.38,3.39,1.15.85.77,1.27,1.74,1.24,2.93l-.02.06h-1.06c0-.91-.33-1.67-.99-2.27-.66-.6-1.51-.9-2.56-.9s-1.92.25-2.53.76c-.61.51-.91,1.13-.91,1.87,0,.7.28,1.28.83,1.73.55.45,1.53.87,2.93,1.27,1.45.42,2.56.95,3.33,1.57.77.62,1.15,1.44,1.15,2.47,0,1.07-.45,1.94-1.34,2.59-.89.65-2.02.98-3.38.98s-2.54-.35-3.56-1.04c-1.01-.69-1.5-1.7-1.47-3.03l.02-.06h1.05c0,1.07.4,1.86,1.2,2.39.8.52,1.72.78,2.75.78s1.92-.24,2.58-.73c.66-.48,1-1.11,1-1.87Z"/>
  </g>
</svg>