<?xml version="1.0" encoding="UTF-8"?>
<svg id="Layer_1" data-name="Layer 1" xmlns="http://www.w3.org/2000/svg" viewBox="0 0 400 400">
  <defs>
    <style>
      .cls-1 {
        fill: #ffdf25;
      }

      .cls-1, .cls-2 {
        stroke-width: 0px;
      }

      .cls-2 {
        fill: #fff;
      }
    </style>
  </defs>
  <g>
    <path class="cls-1" d="M115.71,197.51h27.09v15.41h-48.17v-63.96h48.17v15.54h-27.09v33.01Z"/>
    <g>
      <polygon class="cls-2" points="60.54 195.2 51.09 148.96 29.59 148.96 44.83 212.92 76.16 212.92 91.53 148.96 70.07 148.96 60.54 195.2"/>
      <path class="cls-2" d="M165.69,171.28c.18-1.22.54-2.33,1.07-3.34.53-1.01,1.28-1.83,2.25-2.48.97-.64,2.23-.97,3.8-.97.39,0,.9.15,1.53.44.63.29,1.24.75,1.83,1.36.59.62,1.1,1.41,1.53,2.37.43.97.65,2.12.65,3.46h19.95c0-2.86-.6-5.67-1.81-8.44-1.2-2.77-2.9-5.25-5.1-7.43-2.2-2.18-4.86-3.95-7.98-5.29-3.12-1.34-6.6-2.02-10.44-2.02-3.42,0-6.5.34-9.24,1.03-2.74.69-5.18,1.64-7.31,2.86-2.13,1.22-3.95,2.67-5.48,4.35-1.53,1.68-2.78,3.51-3.76,5.5-.98,1.99-1.7,4.1-2.16,6.34-.46,2.24-.69,4.52-.69,6.85v10.08c0,2.32.23,4.6.69,6.82.46,2.23,1.18,4.34,2.14,6.34.97,2,2.21,3.84,3.74,5.52,1.53,1.68,3.35,3.13,5.46,4.35,2.11,1.22,4.54,2.18,7.29,2.88,2.74.7,5.82,1.05,9.24,1.05,3.61,0,6.96-.56,10.06-1.68,3.09-1.12,5.78-2.7,8.06-4.75,2.28-2.04,4.07-4.48,5.35-7.31,1.29-2.83,1.93-5.92,1.93-9.28h-19.95c0,1.18-.17,2.23-.5,3.15-.34.92-.77,1.71-1.3,2.35-.53.64-1.13,1.14-1.81,1.49-.67.35-1.32.53-1.93.53-1.26,0-2.35-.27-3.28-.8-.92-.53-1.69-1.25-2.29-2.16-.6-.91-1.06-1.97-1.36-3.19-.31-1.22-.46-2.51-.46-3.88v-12.56c0-1.15.09-2.33.27-3.55Z"/>
      <polygon class="cls-2" points="199.85 164.5 215.47 164.5 215.47 212.92 236.47 212.92 236.47 164.5 252.13 164.5 252.13 148.96 199.85 148.96 199.85 164.5"/>
      <path class="cls-2" d="M304.24,157.19c-2.3-2.49-5.25-4.49-8.86-5.98-3.61-1.5-7.98-2.25-13.1-2.25s-9.5.75-13.12,2.25c-3.63,1.5-6.59,3.49-8.88,5.98-2.3,2.49-3.97,5.35-5.02,8.59-1.05,3.23-1.57,6.59-1.57,10.06v10.2c0,2.32.23,4.6.69,6.82.46,2.23,1.18,4.34,2.16,6.34.98,2,2.23,3.84,3.76,5.5,1.53,1.67,3.35,3.11,5.46,4.33,2.11,1.22,4.55,2.17,7.31,2.86,2.76.69,5.84,1.03,9.26,1.03,5.09,0,9.45-.74,13.06-2.23,3.61-1.48,6.56-3.46,8.86-5.94,2.3-2.48,3.98-5.33,5.04-8.57,1.06-3.23,1.6-6.61,1.6-10.14v-10.25c0-3.47-.53-6.82-1.6-10.04-1.06-3.22-2.74-6.07-5.04-8.57ZM289.88,187.3c0,1.4-.16,2.72-.48,3.95-.32,1.23-.8,2.3-1.43,3.21-.63.91-1.42,1.63-2.37,2.16-.95.53-2.04.8-3.28.8s-2.36-.27-3.3-.8c-.94-.53-1.72-1.25-2.35-2.16-.63-.91-1.11-1.97-1.43-3.19-.32-1.22-.48-2.53-.48-3.93v-12.3c0-1.2.1-2.43.29-3.67.2-1.25.57-2.38,1.11-3.4.55-1.02,1.32-1.85,2.31-2.5.99-.64,2.27-.97,3.84-.97,1.15,0,2.19.25,3.13.76.94.5,1.74,1.21,2.39,2.12.66.91,1.16,2.02,1.51,3.32.35,1.3.52,2.75.52,4.35v12.26Z"/>
      <path class="cls-2" d="M369.17,211.07c-.49-.78-.97-1.66-1.43-2.62-.46-.97-.87-1.99-1.22-3.09-.35-1.09-.58-2.18-.69-3.28v-4.45c-.17-1.9-.4-3.49-.69-4.75-.29-1.26-.71-2.32-1.26-3.17-.55-.85-1.25-1.58-2.12-2.18-.87-.6-1.95-1.2-3.23-1.78,3-1.32,5.37-3.03,7.12-5.14,1.75-2.11,2.62-4.72,2.62-7.83v-4.03c0-3.44-.48-6.4-1.45-8.88-.97-2.48-2.46-4.53-4.47-6.15-2.02-1.62-4.57-2.82-7.66-3.59-3.09-.77-6.77-1.15-11.02-1.15h-29.69v63.96h20.95v-20.33h2.9c.78,0,1.55.06,2.31.17.76.11,1.45.37,2.08.78.63.41,1.16.99,1.6,1.76.43.77.74,1.83.9,3.17l.38,4.96c.17,1.04.44,2.11.82,3.23.38,1.12.77,2.14,1.18,3.07.41.92.78,1.69,1.11,2.29.34.6.53.9.59.9h21.63c-.34-.45-.75-1.06-1.24-1.85ZM347.27,171.68c0,.76-.13,1.46-.4,2.12-.27.66-.61,1.23-1.03,1.7-.42.48-.91.85-1.47,1.13-.56.28-1.13.42-1.72.42h-7.68v-12.64h7.73c.92,0,1.68.15,2.27.46.59.31,1.05.73,1.39,1.28.34.55.57,1.18.71,1.91.14.73.21,1.5.21,2.31v1.3Z"/>
      <polygon class="cls-2" points="122.48 188.82 136.02 181 122.48 173.18 122.48 188.82"/>
    </g>
  </g>
  <polygon class="cls-2" points="365.77 225.3 361.83 225.3 364.92 228.4 29.59 228.4 29.59 231.5 364.92 231.5 361.83 234.59 365.77 234.59 370.41 229.95 365.77 225.3"/>
  <g>
    <g>
      <path class="cls-2" d="M36.24,248.33c0,.48-.06.89-.17,1.23-.11.34-.29.62-.54.84-.25.22-.57.38-.97.49-.4.1-.89.16-1.47.16h-3.52v-10.25h3.47c.38,0,.74.04,1.09.11.34.08.64.2.9.37.26.17.47.4.62.68.15.28.23.62.23,1.02v.66c0,.25-.03.49-.1.72-.07.23-.17.44-.31.62-.14.19-.31.34-.52.47-.21.12-.45.2-.73.23.31.03.6.1.84.22.25.12.46.27.63.46.17.19.3.41.39.65.09.24.13.51.13.79v.53ZM35,243.06c0-.23-.04-.44-.11-.63-.07-.19-.19-.36-.35-.5-.16-.14-.37-.24-.63-.32-.26-.08-.58-.11-.96-.11h-2.48v3.85h2.57c.67,0,1.17-.15,1.48-.45.31-.3.47-.71.47-1.24v-.59ZM35.34,247.73c0-.28-.05-.52-.16-.73-.11-.21-.26-.38-.45-.51-.19-.13-.43-.24-.71-.3-.28-.07-.59-.1-.93-.1h-2.62v4.19h2.6c.33,0,.64-.02.91-.06.28-.04.52-.12.71-.26.2-.13.36-.33.47-.59.11-.26.17-.61.17-1.05v-.59Z"/>
      <path class="cls-2" d="M51.51,243.99c0,.66-.17,1.2-.51,1.63-.34.43-.83.72-1.47.89.21.08.39.17.55.28.16.1.29.23.41.36.12.14.21.3.29.48.08.18.15.39.2.64l.36,1.57c.04.21.11.42.2.64.09.21.19.4.29.56h-.94c-.09-.13-.18-.3-.25-.51-.07-.2-.14-.42-.19-.64l-.38-1.59c-.06-.24-.15-.46-.28-.64-.13-.19-.28-.34-.46-.47-.17-.13-.36-.23-.57-.3-.2-.07-.41-.11-.61-.13h-2.41v4.28h-.9v-10.25h3.59c1.01,0,1.78.21,2.3.63.52.42.78,1.09.78,2.01v.57ZM50.6,243.46c0-.28-.03-.54-.1-.78-.07-.23-.18-.44-.35-.6-.17-.17-.39-.3-.67-.39-.28-.09-.64-.14-1.06-.14h-2.67v4.45h2.5c.45,0,.82-.05,1.12-.14.3-.1.54-.23.73-.41.18-.18.32-.39.39-.64.08-.25.12-.53.12-.84v-.49Z"/>
      <path class="cls-2" d="M58.74,251.04l3.49-10.25h1.37l3.5,10.25h-.92l-1.05-3.12h-4.44l-1.04,3.12h-.92ZM60.95,247.15h3.93l-1.88-5.62h-.16l-1.88,5.62Z"/>
      <path class="cls-2" d="M75.86,241.95h-.11l.03.44v8.64s-.88,0-.88,0v-10.25h1.19l5,9.05h.11l-.02-.34v-8.7s.89,0,.89,0v10.25h-1.2l-5.01-9.09Z"/>
      <path class="cls-2" d="M91.29,240.78h3.47c.67,0,1.24.11,1.7.34.46.23.83.53,1.11.91.28.38.48.83.6,1.33.12.5.18,1.03.18,1.59v1.92c0,.35-.02.69-.07,1.03-.04.34-.12.66-.23.97-.11.31-.25.59-.43.86-.18.27-.4.5-.66.69s-.58.35-.94.45c-.36.11-.77.17-1.24.17h-3.49v-10.25ZM92.19,250.27h2.54c.38,0,.73-.06,1.06-.17.33-.12.62-.3.86-.56.24-.26.44-.6.58-1.02.14-.42.21-.94.21-1.56v-2.02c0-.54-.06-1.03-.17-1.45-.11-.42-.28-.78-.51-1.06-.23-.29-.51-.51-.85-.65-.34-.15-.73-.22-1.18-.22h-2.55v8.72Z"/>
    </g>
    <path class="cls-2" d="M122.83,248.35c0,.86-.27,1.52-.82,1.99-.55.47-1.37.7-2.46.7-.56,0-1.06-.07-1.49-.22-.43-.15-.78-.35-1.07-.62-.29-.26-.5-.58-.64-.94-.14-.36-.22-.76-.22-1.2h.86c0,.13.01.29.04.45.03.17.08.33.15.5.07.17.17.33.29.48.12.15.28.29.47.41.19.12.42.21.69.28.27.07.58.11.94.11.43,0,.8-.05,1.1-.15.3-.1.55-.23.74-.4.19-.17.33-.38.41-.61.09-.24.13-.5.13-.78s-.04-.53-.11-.75c-.07-.22-.19-.41-.34-.57-.15-.16-.34-.3-.56-.42-.22-.12-.48-.22-.78-.29l-1.66-.46c-.36-.1-.68-.22-.95-.36-.27-.14-.5-.31-.68-.51-.18-.2-.32-.44-.41-.72-.09-.28-.14-.61-.14-.99,0-.35.05-.68.16-.99.1-.31.28-.57.52-.8.24-.23.56-.4.96-.53.4-.13.9-.19,1.49-.19s1.09.07,1.5.21c.41.14.75.34,1.01.6.26.26.45.57.58.93.13.36.21.77.24,1.22h-.86c-.03-.3-.08-.59-.15-.86-.08-.27-.21-.5-.39-.71-.18-.2-.43-.36-.74-.48-.31-.12-.71-.18-1.19-.18s-.88.05-1.17.15c-.3.1-.52.24-.68.4-.16.17-.27.35-.32.56-.05.21-.08.42-.08.63,0,.26.03.5.1.7.07.2.17.38.3.53.13.15.3.28.51.39.2.11.44.2.71.27l1.82.51c.34.1.64.21.92.36.27.14.5.32.69.53.19.21.33.46.44.76.1.29.15.64.15,1.03Z"/>
    <path class="cls-2" d="M236.45,248.35c0,.86-.27,1.52-.82,1.99-.55.47-1.37.7-2.46.7-.56,0-1.06-.07-1.49-.22-.43-.15-.78-.35-1.07-.62-.29-.26-.5-.58-.64-.94-.14-.36-.21-.76-.21-1.2h.86c0,.13.01.29.04.45.03.17.08.33.15.5.07.17.17.33.29.48.12.15.28.29.47.41.19.12.42.21.69.28.27.07.58.11.94.11.43,0,.8-.05,1.1-.15.3-.1.55-.23.74-.4.19-.17.33-.38.41-.61.09-.24.13-.5.13-.78s-.04-.53-.11-.75c-.07-.22-.19-.41-.34-.57-.15-.16-.34-.3-.56-.42-.22-.12-.48-.22-.78-.29l-1.66-.46c-.36-.1-.68-.22-.95-.36-.27-.14-.5-.31-.68-.51-.18-.2-.32-.44-.41-.72-.09-.28-.14-.61-.14-.99,0-.35.05-.68.16-.99.1-.31.28-.57.52-.8.24-.23.56-.4.96-.53.4-.13.9-.19,1.49-.19s1.09.07,1.5.21c.41.14.75.34,1.01.6.26.26.45.57.58.93.13.36.21.77.24,1.22h-.86c-.03-.3-.08-.59-.15-.86-.08-.27-.21-.5-.39-.71-.18-.2-.43-.36-.74-.48-.31-.12-.71-.18-1.19-.18s-.88.05-1.17.15c-.3.1-.52.24-.68.4-.16.17-.27.35-.32.56-.05.21-.08.42-.08.63,0,.26.03.5.1.7.07.2.17.38.3.53.13.15.3.28.51.39.2.11.44.2.71.27l1.82.51c.34.1.64.21.92.36.27.14.5.32.69.53.19.21.33.46.44.76.1.29.15.64.15,1.03Z"/>
    <path class="cls-2" d="M130.66,245.37c0-.4.02-.79.06-1.17.04-.38.11-.74.21-1.08.1-.34.24-.65.42-.94.18-.29.4-.53.68-.74.27-.21.61-.37,1-.48.39-.12.84-.17,1.37-.17s.98.06,1.36.17c.39.11.72.28,1,.48.28.21.5.45.68.74.18.29.31.6.42.94.1.34.17.7.21,1.08.04.38.06.77.06,1.17v1.08c0,.4-.02.8-.06,1.18-.04.38-.11.74-.21,1.08-.1.34-.24.65-.42.94-.18.29-.4.53-.68.74-.27.2-.61.36-.99.48-.39.12-.84.17-1.37.17s-.98-.06-1.36-.17c-.39-.11-.72-.27-.99-.48-.28-.2-.5-.45-.68-.73-.18-.28-.31-.58-.42-.91-.1-.33-.17-.68-.21-1.05-.04-.37-.06-.74-.06-1.12v-1.21ZM134.38,250.28c.53,0,.97-.08,1.33-.24.36-.16.65-.4.87-.71.22-.31.38-.69.48-1.15.1-.46.14-.98.14-1.58v-1.25c0-.64-.05-1.2-.14-1.68-.1-.48-.26-.87-.48-1.18-.22-.31-.51-.55-.87-.7-.36-.15-.8-.23-1.33-.23s-.98.08-1.34.24c-.36.16-.65.4-.87.72-.22.32-.37.71-.47,1.19-.09.47-.14,1.02-.14,1.65v1.28c0,.58.05,1.1.15,1.55.1.45.26.83.48,1.14.22.31.51.55.87.71.36.16.79.24,1.31.24Z"/>
    <path class="cls-2" d="M198.14,245.37c0-.4.02-.79.06-1.17.04-.38.11-.74.21-1.08.1-.34.24-.65.42-.94.18-.29.4-.53.68-.74.27-.21.61-.37,1-.48.39-.12.84-.17,1.37-.17s.98.06,1.36.17c.39.11.72.28,1,.48.28.21.5.45.68.74.18.29.31.6.42.94.1.34.17.7.21,1.08.04.38.06.77.06,1.17v1.08c0,.4-.02.8-.06,1.18-.04.38-.11.74-.21,1.08-.1.34-.24.65-.42.94-.18.29-.4.53-.68.74-.27.2-.61.36-.99.48-.39.12-.84.17-1.37.17s-.98-.06-1.36-.17c-.39-.11-.72-.27-.99-.48-.28-.2-.5-.45-.68-.73-.18-.28-.31-.58-.42-.91-.1-.33-.17-.68-.21-1.05-.04-.37-.06-.74-.06-1.12v-1.21ZM201.86,250.28c.53,0,.97-.08,1.33-.24.36-.16.65-.4.87-.71.22-.31.38-.69.48-1.15.1-.46.14-.98.14-1.58v-1.25c0-.64-.05-1.2-.14-1.68-.1-.48-.26-.87-.48-1.18-.22-.31-.51-.55-.87-.7-.36-.15-.8-.23-1.33-.23s-.98.08-1.34.24c-.36.16-.65.4-.87.72-.22.32-.37.71-.47,1.19-.09.47-.14,1.02-.14,1.65v1.28c0,.58.05,1.1.15,1.55.1.45.26.83.48,1.14.22.31.51.55.87.71.36.16.79.24,1.31.24Z"/>
    <path class="cls-2" d="M146.59,251.04v-10.25h.9v9.48h5.06v.77h-5.96Z"/>
    <path class="cls-2" d="M166.77,240.78v6.71c0,.24-.02.5-.06.77-.04.27-.11.54-.21.8-.1.26-.24.51-.42.75-.18.24-.4.45-.68.63-.27.18-.61.33-.99.43-.39.11-.84.16-1.37.16s-.95-.05-1.34-.16c-.38-.11-.71-.25-.99-.42-.27-.18-.5-.39-.68-.62-.18-.24-.32-.49-.43-.75-.11-.26-.18-.53-.22-.8-.04-.27-.06-.53-.06-.78v-6.73h.9v6.83c0,.16.01.33.04.53.03.19.08.39.16.58.07.19.18.39.31.57.13.19.31.35.52.5s.46.26.76.35c.29.09.64.13,1.04.13.42,0,.79-.04,1.09-.13.3-.09.56-.2.77-.35s.38-.31.5-.5c.13-.19.22-.38.29-.57.07-.2.11-.39.13-.58.02-.19.03-.37.03-.53v-6.83h.9Z"/>
    <path class="cls-2" d="M177.86,241.55v9.49h-.9v-9.49h-3.23v-.76h7.36v.76h-3.22Z"/>
    <path class="cls-2" d="M188.7,251.04v-10.25h.9v10.25h-.9Z"/>
    <path class="cls-2" d="M215.09,241.95h-.11l.03.45v8.64s-.88,0-.88,0v-10.25h1.19l5,9.05h.11l-.02-.34v-8.7s.89,0,.89,0v10.25h-1.2l-5.01-9.09Z"/>
  </g>
</svg>