<?xml version="1.0" encoding="UTF-8"?>
<svg id="Layer_1" xmlns="http://www.w3.org/2000/svg" viewBox="0 0 48 48">
  <defs>
    <style>
      .cls-1 {
        fill: #231f20;
      }

      .cls-2 {
        fill: #fff;
      }

      .cls-3 {
        fill: #fd0;
      }
    </style>
  </defs>
  <path class="cls-2" d="M24,46.41c-3.33,0-6.53-.71-9.52-2.12-3.8-1.79-7.01-4.59-9.3-8.12-2.35-3.62-3.59-7.83-3.59-12.17C1.59,11.64,11.64,1.59,24,1.59c3.32,0,6.51.71,9.5,2.1,3.8,1.78,7.03,4.59,9.32,8.12,2.35,3.63,3.6,7.84,3.6,12.18,0,12.36-10.05,22.41-22.41,22.41Z"/>
  <g>
    <g>
      <path class="cls-1" d="M33.11,4.53c-2.77-1.29-5.85-2.02-9.11-2.02C12.13,2.51,2.51,12.13,2.51,24c0,8.6,5.06,16.03,12.36,19.46L33.11,4.53Z"/>
      <path class="cls-3" d="M33.11,4.53L14.87,43.46c2.77,1.3,5.87,2.03,9.13,2.03,11.87,0,21.49-9.62,21.49-21.49,0-8.61-5.07-16.04-12.38-19.47Z"/>
    </g>
    <g>
      <polygon class="cls-3" points="13.64 21.49 11.1 21.49 11.1 26.99 9.35 26.99 9.35 21.49 6.8 21.49 6.8 19.9 13.64 19.9 13.64 21.49"/>
      <rect class="cls-3" x="18.56" y="19.9" width="1.73" height="7.09"/>
      <polygon class="cls-1" points="28.5 25.41 32.29 25.41 32.27 26.99 26.77 26.99 26.77 19.9 28.5 19.9 28.5 25.41"/>
      <polygon class="cls-1" points="41.01 21.49 38.46 21.49 38.46 26.99 36.71 26.99 36.71 21.49 34.16 21.49 34.16 19.9 41.02 19.9 41.01 21.49"/>
    </g>
    <g>
      <path class="cls-3" d="M9.34,28.65h.56c.07,0,.13,0,.19.01.06,0,.12.03.17.06.05.03.09.07.11.12.03.05.03.12.02.2-.01.09-.05.16-.1.21-.06.06-.13.1-.21.12h0s.09.02.13.05c.04.02.07.05.09.08.02.03.04.07.05.11,0,.04.01.09,0,.14-.01.08-.04.15-.08.2-.04.05-.09.1-.15.13-.06.03-.12.06-.19.07-.07.01-.14.02-.2.02h-.62l.21-1.51ZM9.5,29.87h.3s.05,0,.08,0c.03,0,.05-.02.08-.03.02-.01.04-.03.06-.06.02-.02.03-.05.03-.08,0-.04,0-.06-.02-.09-.01-.02-.03-.04-.06-.05-.03-.01-.05-.02-.08-.02-.03,0-.06,0-.09,0h-.25l-.05.34ZM9.59,29.25h.24s.05,0,.08,0c.03,0,.05-.02.07-.03.02-.01.04-.03.06-.05.02-.02.02-.05.03-.08,0-.03,0-.06,0-.08-.01-.02-.03-.04-.05-.05-.02-.01-.04-.02-.07-.02-.03,0-.05,0-.08,0h-.23l-.05.32Z"/>
      <path class="cls-3" d="M11.45,28.65h.58c.08,0,.15,0,.21.02.07.02.12.04.17.07.05.03.08.08.1.14.02.06.03.13.02.22-.02.11-.06.2-.12.27-.07.07-.15.12-.26.14l.29.64h-.4l-.23-.6h-.16l-.08.6h-.33l.21-1.51ZM11.69,29.27h.2s.06,0,.09,0c.03,0,.06,0,.09-.02.03-.01.05-.03.07-.05.02-.02.04-.05.04-.1,0-.04,0-.07-.01-.09-.01-.02-.03-.04-.05-.05-.02-.01-.05-.02-.08-.02-.03,0-.06,0-.09,0h-.22l-.05.34Z"/>
      <path class="cls-3" d="M14.05,28.65h.27l.45,1.51h-.38l-.09-.32h-.59l-.17.32h-.37l.86-1.51ZM14.11,29.09l-.25.47h.37l-.12-.47Z"/>
      <path class="cls-3" d="M15.85,28.65h.45l.49,1.05h0l.15-1.05h.33l-.21,1.51h-.43l-.51-1.07h0l-.15,1.07h-.33l.21-1.51Z"/>
      <path class="cls-3" d="M18.36,28.65h.5c.12,0,.23.01.34.04.1.03.19.07.27.13.07.06.13.14.16.24.03.1.04.21.02.35-.02.12-.06.23-.11.32-.06.09-.13.17-.22.23-.09.06-.18.11-.29.14-.11.03-.22.05-.33.05h-.54l.21-1.51ZM18.52,29.85h.17c.08,0,.15,0,.22-.02.07-.02.13-.04.18-.08.05-.04.1-.08.13-.14.04-.06.06-.13.07-.22,0-.07,0-.14-.01-.19-.02-.05-.05-.1-.09-.14-.04-.04-.09-.06-.15-.08-.06-.02-.12-.03-.19-.03h-.2l-.13.89Z"/>
      <path class="cls-1" d="M23.6,29.02s-.06-.06-.1-.08c-.04-.02-.09-.02-.13-.02-.02,0-.05,0-.08,0-.03,0-.05.01-.08.03-.02.01-.04.03-.06.05-.02.02-.03.04-.03.07,0,.03,0,.06.02.08.02.02.04.04.07.05.03.02.07.03.11.04.04.01.08.02.12.04.04.01.08.03.12.05.04.02.07.05.1.08.03.03.05.07.06.12.01.05.02.1,0,.17-.01.08-.04.16-.08.22-.04.06-.09.11-.15.16-.06.04-.12.07-.2.09-.07.02-.15.03-.23.03-.1,0-.19-.02-.27-.05-.08-.03-.15-.08-.21-.14l.27-.26s.07.08.11.11c.05.02.1.04.15.04.03,0,.05,0,.08,0,.03,0,.05-.02.08-.03.02-.01.04-.03.06-.05.02-.02.03-.04.03-.07,0-.05,0-.08-.04-.11-.03-.03-.07-.05-.12-.07-.05-.02-.1-.04-.16-.06-.06-.02-.11-.04-.16-.07-.05-.03-.09-.07-.11-.12-.03-.05-.04-.12-.02-.2.01-.08.04-.15.08-.21.04-.06.09-.11.15-.15.06-.04.13-.07.2-.09.07-.02.15-.03.22-.03.09,0,.17.01.24.04.08.02.14.06.2.12l-.26.25Z"/>
      <path class="cls-1" d="M24.41,29.4c.02-.12.05-.23.11-.33.05-.1.12-.18.2-.25.08-.07.17-.12.28-.16.11-.04.22-.06.33-.06s.22.02.32.06c.09.04.17.09.23.16.06.07.11.15.13.25.03.1.03.21.02.33s-.05.23-.11.33c-.05.1-.12.18-.2.25-.08.07-.18.12-.28.16-.1.04-.22.06-.33.06s-.22-.02-.32-.06c-.09-.04-.17-.09-.24-.16-.06-.07-.11-.15-.13-.25-.03-.1-.03-.21-.02-.33ZM24.76,29.4c0,.07,0,.14,0,.2.01.06.04.11.07.15.03.04.08.08.13.1.05.02.12.04.19.04s.14-.01.2-.04c.06-.02.11-.06.16-.1.05-.04.09-.09.12-.15.03-.06.05-.12.06-.2,0-.07,0-.13,0-.19-.01-.06-.04-.11-.07-.15-.04-.04-.08-.08-.13-.1-.05-.02-.12-.04-.19-.04s-.14.01-.2.04c-.06.02-.11.06-.16.1-.05.04-.09.09-.12.15-.03.06-.05.12-.06.19Z"/>
      <path class="cls-1" d="M26.85,28.65h.33l-.17,1.2h.62l-.04.31h-.95l.21-1.51Z"/>
      <path class="cls-1" d="M29.6,29.57c-.01.09-.04.17-.08.25-.04.08-.09.14-.15.2-.06.05-.13.1-.22.13-.08.03-.18.05-.28.05s-.2-.02-.27-.05c-.07-.03-.14-.07-.18-.13-.05-.06-.08-.12-.09-.2-.02-.07-.02-.16,0-.25l.13-.93h.33l-.13.91s0,.09,0,.13c0,.04.03.07.05.1.02.03.05.05.09.07.04.02.07.02.12.02s.09,0,.12-.02c.04-.02.07-.04.11-.07.03-.03.06-.06.08-.1.02-.04.03-.08.04-.13l.13-.91h.33l-.13.93Z"/>
      <path class="cls-1" d="M30.75,28.94h-.43l.04-.29h1.19l-.04.29h-.43l-.17,1.21h-.33l.17-1.21Z"/>
      <path class="cls-1" d="M32.23,28.65h.33l-.21,1.51h-.33l.21-1.51Z"/>
      <path class="cls-1" d="M33.15,29.4c.02-.12.05-.23.11-.33.05-.1.12-.18.2-.25.08-.07.17-.12.28-.16.11-.04.22-.06.33-.06s.22.02.32.06c.09.04.17.09.23.16.06.07.11.15.13.25.03.1.03.21.02.33-.02.12-.05.23-.11.33-.05.1-.12.18-.2.25-.08.07-.18.12-.28.16-.1.04-.22.06-.33.06s-.22-.02-.32-.06c-.09-.04-.17-.09-.24-.16-.06-.07-.11-.15-.13-.25-.03-.1-.03-.21-.02-.33ZM33.49,29.4c0,.07,0,.14,0,.2.01.06.04.11.07.15.03.04.08.08.13.1.05.02.12.04.19.04s.14-.01.2-.04c.06-.02.11-.06.16-.1.05-.04.09-.09.12-.15.03-.06.05-.12.06-.2,0-.07,0-.13,0-.19-.01-.06-.04-.11-.07-.15-.04-.04-.08-.08-.13-.1-.05-.02-.12-.04-.19-.04s-.14.01-.2.04c-.06.02-.11.06-.16.1-.05.04-.09.09-.12.15-.03.06-.05.12-.06.19Z"/>
      <path class="cls-1" d="M35.49,28.65h.45l.49,1.05h0l.15-1.05h.33l-.21,1.51h-.43l-.51-1.07h0l-.15,1.07h-.33l.21-1.51Z"/>
      <path class="cls-1" d="M38.43,29.02s-.06-.06-.1-.08c-.04-.02-.09-.02-.13-.02-.02,0-.05,0-.08,0-.03,0-.05.01-.08.03-.02.01-.04.03-.06.05-.02.02-.03.04-.03.07,0,.03,0,.06.02.08.02.02.04.04.07.05.03.02.07.03.11.04.04.01.08.02.12.04.04.01.08.03.12.05.04.02.07.05.1.08.03.03.05.07.06.12.01.05.02.1,0,.17-.01.08-.04.16-.08.22-.04.06-.09.11-.15.16-.06.04-.13.07-.2.09-.07.02-.15.03-.23.03-.1,0-.19-.02-.27-.05-.08-.03-.15-.08-.21-.14l.27-.26s.07.08.11.11c.05.02.1.04.15.04.03,0,.05,0,.08,0,.03,0,.05-.02.08-.03.02-.01.04-.03.06-.05.02-.02.03-.04.03-.07,0-.05,0-.08-.04-.11-.03-.03-.07-.05-.12-.07-.05-.02-.1-.04-.16-.06-.06-.02-.11-.04-.16-.07-.05-.03-.09-.07-.11-.12-.03-.05-.04-.12-.02-.2.01-.08.04-.15.08-.21.04-.06.09-.11.15-.15.06-.04.13-.07.2-.09.07-.02.15-.03.22-.03.09,0,.17.01.24.04.08.02.14.06.2.12l-.26.25Z"/>
    </g>
  </g>
</svg>