<?xml version="1.0" encoding="UTF-8"?>
<svg xmlns="http://www.w3.org/2000/svg" xmlns:xlink="http://www.w3.org/1999/xlink" width="174px" height="174px" viewBox="0 0 174 174" version="1.1">
<g id="surface1">
<path style=" stroke:none;fill-rule:nonzero;fill:rgb(100%,100%,100%);fill-opacity:1;" d="M 87 168.234375 C 74.929688 168.234375 63.328125 165.664062 52.488281 160.550781 C 38.714844 154.0625 27.078125 143.914062 18.777344 131.117188 C 10.257812 117.992188 5.765625 102.734375 5.765625 87 C 5.765625 42.195312 42.195312 5.765625 87 5.765625 C 99.035156 5.765625 110.597656 8.335938 121.4375 13.375 C 135.210938 19.828125 146.921875 30.015625 155.222656 42.8125 C 163.742188 55.96875 168.273438 71.230469 168.273438 86.964844 C 168.273438 131.769531 131.839844 168.199219 87.035156 168.199219 Z M 87 168.234375 "/>
<path style=" stroke:none;fill-rule:nonzero;fill:rgb(13.72549%,12.156863%,12.54902%);fill-opacity:1;" d="M 120.023438 16.421875 C 109.984375 11.746094 98.816406 9.097656 87 9.097656 C 43.972656 9.097656 9.097656 43.972656 9.097656 87 C 9.097656 118.175781 27.441406 145.109375 53.902344 157.542969 Z M 120.023438 16.421875 "/>
<path style=" stroke:none;fill-rule:nonzero;fill:rgb(100%,86.666667%,0%);fill-opacity:1;" d="M 120.023438 16.421875 L 53.902344 157.542969 C 63.945312 162.253906 75.183594 164.902344 87 164.902344 C 130.027344 164.902344 164.902344 130.027344 164.902344 87 C 164.902344 55.789062 146.523438 28.855469 120.023438 16.421875 Z M 120.023438 16.421875 "/>
<path style=" stroke:none;fill-rule:nonzero;fill:rgb(100%,86.666667%,0%);fill-opacity:1;" d="M 49.445312 77.902344 L 40.238281 77.902344 L 40.238281 97.839844 L 33.894531 97.839844 L 33.894531 77.902344 L 24.648438 77.902344 L 24.648438 72.136719 L 49.445312 72.136719 Z M 49.445312 77.902344 "/>
<path style=" stroke:none;fill-rule:nonzero;fill:rgb(100%,86.666667%,0%);fill-opacity:1;" d="M 67.28125 72.136719 L 73.550781 72.136719 L 73.550781 97.839844 L 67.28125 97.839844 Z M 67.28125 72.136719 "/>
<path style=" stroke:none;fill-rule:nonzero;fill:rgb(13.72549%,12.156863%,12.54902%);fill-opacity:1;" d="M 103.3125 92.109375 L 117.050781 92.109375 L 116.980469 97.839844 L 97.042969 97.839844 L 97.042969 72.136719 L 103.3125 72.136719 Z M 103.3125 92.109375 "/>
<path style=" stroke:none;fill-rule:nonzero;fill:rgb(13.72549%,12.156863%,12.54902%);fill-opacity:1;" d="M 148.660156 77.902344 L 139.417969 77.902344 L 139.417969 97.839844 L 133.074219 97.839844 L 133.074219 77.902344 L 123.828125 77.902344 L 123.828125 72.136719 L 148.699219 72.136719 Z M 148.660156 77.902344 "/>
<path style=" stroke:none;fill-rule:nonzero;fill:rgb(100%,86.666667%,0%);fill-opacity:1;" d="M 33.859375 103.855469 L 35.886719 103.855469 C 36.140625 103.855469 36.359375 103.855469 36.578125 103.890625 C 36.792969 103.890625 37.011719 104 37.191406 104.109375 C 37.375 104.21875 37.519531 104.363281 37.589844 104.546875 C 37.699219 104.726562 37.699219 104.980469 37.664062 105.269531 C 37.628906 105.597656 37.484375 105.851562 37.300781 106.03125 C 37.082031 106.25 36.828125 106.394531 36.539062 106.464844 C 36.539062 106.464844 36.867188 106.539062 37.011719 106.648438 C 37.15625 106.71875 37.265625 106.828125 37.335938 106.9375 C 37.410156 107.046875 37.484375 107.191406 37.519531 107.335938 C 37.519531 107.480469 37.554688 107.664062 37.519531 107.84375 C 37.484375 108.132812 37.375 108.386719 37.230469 108.570312 C 37.082031 108.75 36.902344 108.929688 36.683594 109.039062 C 36.46875 109.148438 36.25 109.257812 35.996094 109.292969 C 35.742188 109.328125 35.488281 109.367188 35.269531 109.367188 L 33.023438 109.367188 L 33.785156 103.890625 Z M 34.4375 108.277344 L 35.523438 108.277344 C 35.523438 108.277344 35.707031 108.277344 35.816406 108.277344 C 35.921875 108.277344 35.996094 108.207031 36.105469 108.171875 C 36.175781 108.132812 36.25 108.0625 36.324219 107.953125 C 36.394531 107.878906 36.429688 107.769531 36.429688 107.664062 C 36.429688 107.515625 36.429688 107.445312 36.359375 107.335938 C 36.324219 107.265625 36.25 107.191406 36.140625 107.15625 C 36.03125 107.117188 35.960938 107.082031 35.851562 107.082031 C 35.742188 107.082031 35.632812 107.082031 35.523438 107.082031 L 34.617188 107.082031 L 34.4375 108.316406 Z M 34.765625 106.03125 L 35.632812 106.03125 C 35.632812 106.03125 35.816406 106.03125 35.921875 106.03125 C 36.03125 106.03125 36.105469 105.957031 36.175781 105.921875 C 36.25 105.886719 36.324219 105.8125 36.394531 105.742188 C 36.46875 105.667969 36.46875 105.558594 36.503906 105.453125 C 36.503906 105.34375 36.503906 105.234375 36.503906 105.160156 C 36.46875 105.089844 36.394531 105.015625 36.324219 104.980469 C 36.25 104.945312 36.175781 104.90625 36.070312 104.90625 C 35.960938 104.90625 35.886719 104.90625 35.777344 104.90625 L 34.945312 104.90625 L 34.765625 106.066406 Z M 34.765625 106.03125 "/>
<path style=" stroke:none;fill-rule:nonzero;fill:rgb(100%,86.666667%,0%);fill-opacity:1;" d="M 41.507812 103.855469 L 43.609375 103.855469 C 43.898438 103.855469 44.152344 103.855469 44.371094 103.929688 C 44.625 104 44.804688 104.074219 44.984375 104.183594 C 45.167969 104.292969 45.277344 104.472656 45.347656 104.691406 C 45.421875 104.90625 45.457031 105.160156 45.421875 105.488281 C 45.347656 105.886719 45.203125 106.210938 44.984375 106.464844 C 44.734375 106.71875 44.441406 106.902344 44.042969 106.972656 L 45.09375 109.292969 L 43.644531 109.292969 L 42.8125 107.117188 L 42.230469 107.117188 L 41.941406 109.292969 L 40.746094 109.292969 L 41.507812 103.820312 Z M 42.375 106.105469 L 43.101562 106.105469 C 43.101562 106.105469 43.320312 106.105469 43.425781 106.105469 C 43.535156 106.105469 43.644531 106.105469 43.753906 106.03125 C 43.863281 105.996094 43.933594 105.921875 44.007812 105.851562 C 44.078125 105.777344 44.152344 105.667969 44.152344 105.488281 C 44.152344 105.34375 44.152344 105.234375 44.117188 105.160156 C 44.078125 105.089844 44.007812 105.015625 43.933594 104.980469 C 43.863281 104.945312 43.753906 104.90625 43.644531 104.90625 C 43.535156 104.90625 43.425781 104.90625 43.320312 104.90625 L 42.519531 104.90625 L 42.339844 106.140625 Z M 42.375 106.105469 "/>
<path style=" stroke:none;fill-rule:nonzero;fill:rgb(100%,86.666667%,0%);fill-opacity:1;" d="M 50.929688 103.855469 L 51.910156 103.855469 L 53.542969 109.328125 L 52.164062 109.328125 L 51.835938 108.171875 L 49.699219 108.171875 L 49.082031 109.328125 L 47.742188 109.328125 L 50.859375 103.855469 Z M 51.148438 105.453125 L 50.242188 107.15625 L 51.582031 107.15625 Z M 51.148438 105.453125 "/>
<path style=" stroke:none;fill-rule:nonzero;fill:rgb(100%,86.666667%,0%);fill-opacity:1;" d="M 57.457031 103.855469 L 59.085938 103.855469 L 60.863281 107.664062 L 61.40625 103.855469 L 62.605469 103.855469 L 61.84375 109.328125 L 60.285156 109.328125 L 58.433594 105.453125 L 57.890625 109.328125 L 56.695312 109.328125 Z M 57.457031 103.855469 "/>
<path style=" stroke:none;fill-rule:nonzero;fill:rgb(100%,86.666667%,0%);fill-opacity:1;" d="M 66.554688 103.855469 L 68.367188 103.855469 C 68.800781 103.855469 69.203125 103.890625 69.601562 104 C 69.960938 104.109375 70.289062 104.253906 70.578125 104.472656 C 70.832031 104.691406 71.050781 104.980469 71.160156 105.34375 C 71.265625 105.703125 71.304688 106.105469 71.230469 106.609375 C 71.160156 107.046875 71.015625 107.445312 70.832031 107.769531 C 70.613281 108.097656 70.359375 108.386719 70.035156 108.605469 C 69.707031 108.824219 69.382812 109.003906 68.984375 109.113281 C 68.585938 109.222656 68.1875 109.292969 67.789062 109.292969 L 65.828125 109.292969 L 66.589844 103.820312 Z M 67.136719 108.207031 L 67.75 108.207031 C 68.042969 108.207031 68.296875 108.207031 68.546875 108.132812 C 68.800781 108.0625 69.019531 107.988281 69.203125 107.84375 C 69.382812 107.699219 69.5625 107.554688 69.671875 107.335938 C 69.816406 107.117188 69.890625 106.863281 69.925781 106.539062 C 69.925781 106.285156 69.925781 106.03125 69.890625 105.851562 C 69.816406 105.667969 69.707031 105.488281 69.5625 105.34375 C 69.417969 105.199219 69.238281 105.125 69.019531 105.050781 C 68.800781 104.980469 68.585938 104.945312 68.332031 104.945312 L 67.605469 104.945312 L 67.136719 108.171875 Z M 67.136719 108.207031 "/>
<path style=" stroke:none;fill-rule:nonzero;fill:rgb(13.72549%,12.156863%,12.54902%);fill-opacity:1;" d="M 85.550781 105.199219 C 85.550781 105.199219 85.332031 104.980469 85.1875 104.90625 C 85.042969 104.835938 84.859375 104.835938 84.714844 104.835938 C 84.644531 104.835938 84.535156 104.835938 84.425781 104.835938 C 84.316406 104.835938 84.246094 104.871094 84.136719 104.945312 C 84.0625 104.980469 83.992188 105.050781 83.917969 105.125 C 83.847656 105.199219 83.808594 105.269531 83.808594 105.378906 C 83.808594 105.488281 83.808594 105.597656 83.882812 105.667969 C 83.953125 105.742188 84.027344 105.8125 84.136719 105.851562 C 84.246094 105.921875 84.390625 105.957031 84.535156 105.996094 C 84.679688 106.03125 84.824219 106.066406 84.96875 106.140625 C 85.113281 106.175781 85.261719 106.25 85.40625 106.320312 C 85.550781 106.394531 85.660156 106.503906 85.765625 106.609375 C 85.875 106.71875 85.949219 106.863281 85.984375 107.046875 C 86.019531 107.226562 86.058594 107.410156 85.984375 107.664062 C 85.949219 107.953125 85.839844 108.242188 85.695312 108.460938 C 85.550781 108.675781 85.367188 108.859375 85.152344 109.039062 C 84.933594 109.183594 84.714844 109.292969 84.425781 109.367188 C 84.171875 109.4375 83.882812 109.476562 83.59375 109.476562 C 83.230469 109.476562 82.902344 109.402344 82.613281 109.292969 C 82.324219 109.183594 82.070312 109.003906 81.851562 108.785156 L 82.832031 107.84375 C 82.832031 107.84375 83.085938 108.132812 83.230469 108.242188 C 83.410156 108.316406 83.59375 108.386719 83.773438 108.386719 C 83.882812 108.386719 83.953125 108.386719 84.0625 108.386719 C 84.171875 108.386719 84.246094 108.316406 84.355469 108.277344 C 84.425781 108.242188 84.5 108.171875 84.570312 108.097656 C 84.644531 108.023438 84.679688 107.953125 84.679688 107.84375 C 84.679688 107.664062 84.679688 107.554688 84.535156 107.445312 C 84.425781 107.335938 84.28125 107.265625 84.101562 107.191406 C 83.917969 107.117188 83.738281 107.046875 83.519531 106.972656 C 83.300781 106.902344 83.121094 106.828125 82.941406 106.71875 C 82.757812 106.609375 82.613281 106.464844 82.542969 106.285156 C 82.433594 106.105469 82.394531 105.851562 82.46875 105.558594 C 82.503906 105.269531 82.613281 105.015625 82.757812 104.796875 C 82.902344 104.582031 83.085938 104.398438 83.300781 104.253906 C 83.519531 104.109375 83.773438 104 84.027344 103.929688 C 84.28125 103.855469 84.570312 103.820312 84.824219 103.820312 C 85.152344 103.820312 85.441406 103.855469 85.695312 103.964844 C 85.984375 104.039062 86.203125 104.183594 86.421875 104.398438 L 85.476562 105.304688 Z M 85.550781 105.199219 "/>
<path style=" stroke:none;fill-rule:nonzero;fill:rgb(13.72549%,12.156863%,12.54902%);fill-opacity:1;" d="M 88.484375 106.574219 C 88.558594 106.140625 88.667969 105.742188 88.886719 105.378906 C 89.066406 105.015625 89.320312 104.726562 89.609375 104.472656 C 89.898438 104.21875 90.226562 104.039062 90.625 103.890625 C 91.023438 103.746094 91.421875 103.675781 91.820312 103.675781 C 92.21875 103.675781 92.617188 103.746094 92.980469 103.890625 C 93.308594 104.039062 93.597656 104.21875 93.816406 104.472656 C 94.03125 104.726562 94.214844 105.015625 94.285156 105.378906 C 94.394531 105.742188 94.394531 106.140625 94.359375 106.574219 C 94.324219 107.011719 94.175781 107.410156 93.960938 107.769531 C 93.777344 108.132812 93.523438 108.421875 93.234375 108.675781 C 92.945312 108.929688 92.582031 109.113281 92.21875 109.257812 C 91.859375 109.402344 91.421875 109.476562 91.023438 109.476562 C 90.625 109.476562 90.226562 109.402344 89.863281 109.257812 C 89.539062 109.113281 89.246094 108.929688 88.992188 108.675781 C 88.777344 108.421875 88.59375 108.132812 88.523438 107.769531 C 88.414062 107.410156 88.414062 107.011719 88.449219 106.574219 Z M 89.753906 106.574219 C 89.753906 106.828125 89.753906 107.082031 89.753906 107.300781 C 89.792969 107.515625 89.898438 107.699219 90.007812 107.84375 C 90.117188 107.988281 90.296875 108.132812 90.480469 108.207031 C 90.660156 108.277344 90.914062 108.351562 91.167969 108.351562 C 91.421875 108.351562 91.675781 108.316406 91.894531 108.207031 C 92.109375 108.132812 92.292969 107.988281 92.472656 107.84375 C 92.65625 107.699219 92.800781 107.515625 92.910156 107.300781 C 93.015625 107.082031 93.089844 106.863281 93.125 106.574219 C 93.125 106.320312 93.125 106.105469 93.125 105.886719 C 93.089844 105.667969 92.980469 105.488281 92.871094 105.34375 C 92.726562 105.199219 92.582031 105.050781 92.402344 104.980469 C 92.21875 104.90625 91.964844 104.835938 91.710938 104.835938 C 91.457031 104.835938 91.203125 104.871094 90.988281 104.980469 C 90.769531 105.050781 90.589844 105.199219 90.40625 105.34375 C 90.226562 105.488281 90.082031 105.667969 89.972656 105.886719 C 89.863281 106.105469 89.792969 106.320312 89.753906 106.574219 Z M 89.753906 106.574219 "/>
<path style=" stroke:none;fill-rule:nonzero;fill:rgb(13.72549%,12.156863%,12.54902%);fill-opacity:1;" d="M 97.332031 103.855469 L 98.527344 103.855469 L 97.910156 108.207031 L 100.160156 108.207031 L 100.015625 109.328125 L 96.570312 109.328125 Z M 97.332031 103.855469 "/>
<path style=" stroke:none;fill-rule:nonzero;fill:rgb(13.72549%,12.156863%,12.54902%);fill-opacity:1;" d="M 107.300781 107.191406 C 107.265625 107.515625 107.15625 107.808594 107.011719 108.097656 C 106.863281 108.386719 106.683594 108.605469 106.464844 108.824219 C 106.25 109.003906 105.996094 109.183594 105.667969 109.292969 C 105.378906 109.402344 105.015625 109.476562 104.652344 109.476562 C 104.292969 109.476562 103.929688 109.402344 103.675781 109.292969 C 103.421875 109.183594 103.167969 109.039062 103.023438 108.824219 C 102.839844 108.605469 102.734375 108.386719 102.695312 108.097656 C 102.625 107.84375 102.625 107.515625 102.695312 107.191406 L 103.167969 103.820312 L 104.363281 103.820312 L 103.890625 107.117188 C 103.890625 107.117188 103.890625 107.445312 103.890625 107.589844 C 103.890625 107.734375 104 107.84375 104.074219 107.953125 C 104.144531 108.0625 104.253906 108.132812 104.398438 108.207031 C 104.546875 108.277344 104.652344 108.277344 104.835938 108.277344 C 105.015625 108.277344 105.160156 108.277344 105.269531 108.207031 C 105.414062 108.132812 105.523438 108.0625 105.667969 107.953125 C 105.777344 107.84375 105.886719 107.734375 105.957031 107.589844 C 106.03125 107.445312 106.066406 107.300781 106.105469 107.117188 L 106.574219 103.820312 L 107.769531 103.820312 Z M 107.300781 107.191406 "/>
<path style=" stroke:none;fill-rule:nonzero;fill:rgb(13.72549%,12.156863%,12.54902%);fill-opacity:1;" d="M 111.46875 104.90625 L 109.910156 104.90625 L 110.054688 103.855469 L 114.367188 103.855469 L 114.222656 104.90625 L 112.664062 104.90625 L 112.046875 109.292969 L 110.851562 109.292969 Z M 111.46875 104.90625 "/>
<path style=" stroke:none;fill-rule:nonzero;fill:rgb(13.72549%,12.156863%,12.54902%);fill-opacity:1;" d="M 116.832031 103.855469 L 118.03125 103.855469 L 117.269531 109.328125 L 116.074219 109.328125 Z M 116.832031 103.855469 "/>
<path style=" stroke:none;fill-rule:nonzero;fill:rgb(13.72549%,12.156863%,12.54902%);fill-opacity:1;" d="M 120.167969 106.574219 C 120.242188 106.140625 120.351562 105.742188 120.566406 105.378906 C 120.75 105.015625 121.003906 104.726562 121.292969 104.472656 C 121.582031 104.21875 121.910156 104.039062 122.308594 103.890625 C 122.707031 103.746094 123.105469 103.675781 123.503906 103.675781 C 123.902344 103.675781 124.300781 103.746094 124.664062 103.890625 C 124.988281 104.039062 125.28125 104.21875 125.496094 104.472656 C 125.714844 104.726562 125.894531 105.015625 125.96875 105.378906 C 126.078125 105.742188 126.078125 106.140625 126.042969 106.574219 C 125.96875 107.011719 125.859375 107.410156 125.640625 107.769531 C 125.460938 108.132812 125.207031 108.421875 124.917969 108.675781 C 124.628906 108.929688 124.265625 109.113281 123.902344 109.257812 C 123.539062 109.402344 123.105469 109.476562 122.707031 109.476562 C 122.308594 109.476562 121.910156 109.402344 121.546875 109.257812 C 121.21875 109.113281 120.929688 108.929688 120.675781 108.675781 C 120.457031 108.421875 120.277344 108.132812 120.203125 107.769531 C 120.097656 107.410156 120.097656 107.011719 120.132812 106.574219 Z M 121.402344 106.574219 C 121.402344 106.828125 121.402344 107.082031 121.402344 107.300781 C 121.4375 107.515625 121.546875 107.699219 121.65625 107.84375 C 121.765625 107.988281 121.945312 108.132812 122.125 108.207031 C 122.308594 108.277344 122.5625 108.351562 122.816406 108.351562 C 123.070312 108.351562 123.324219 108.316406 123.539062 108.207031 C 123.757812 108.132812 123.9375 107.988281 124.121094 107.84375 C 124.300781 107.699219 124.445312 107.515625 124.554688 107.300781 C 124.664062 107.082031 124.734375 106.863281 124.773438 106.574219 C 124.773438 106.320312 124.773438 106.105469 124.773438 105.886719 C 124.734375 105.667969 124.628906 105.488281 124.519531 105.34375 C 124.375 105.199219 124.230469 105.050781 124.046875 104.980469 C 123.867188 104.90625 123.613281 104.835938 123.359375 104.835938 C 123.105469 104.835938 122.851562 104.871094 122.632812 104.980469 C 122.417969 105.050781 122.234375 105.199219 122.054688 105.34375 C 121.871094 105.488281 121.726562 105.667969 121.617188 105.886719 C 121.511719 106.105469 121.4375 106.320312 121.402344 106.574219 Z M 121.402344 106.574219 "/>
<path style=" stroke:none;fill-rule:nonzero;fill:rgb(13.72549%,12.156863%,12.54902%);fill-opacity:1;" d="M 128.652344 103.855469 L 130.28125 103.855469 L 132.058594 107.664062 L 132.601562 103.855469 L 133.796875 103.855469 L 133.039062 109.328125 L 131.480469 109.328125 L 129.628906 105.453125 L 129.085938 109.328125 L 127.890625 109.328125 Z M 128.652344 103.855469 "/>
<path style=" stroke:none;fill-rule:nonzero;fill:rgb(13.72549%,12.156863%,12.54902%);fill-opacity:1;" d="M 139.308594 105.199219 C 139.308594 105.199219 139.089844 104.980469 138.945312 104.90625 C 138.800781 104.835938 138.621094 104.835938 138.476562 104.835938 C 138.402344 104.835938 138.292969 104.835938 138.183594 104.835938 C 138.078125 104.835938 138.003906 104.871094 137.894531 104.945312 C 137.824219 104.980469 137.75 105.050781 137.675781 105.125 C 137.605469 105.199219 137.570312 105.269531 137.570312 105.378906 C 137.570312 105.488281 137.570312 105.597656 137.640625 105.667969 C 137.714844 105.742188 137.785156 105.8125 137.894531 105.851562 C 138.003906 105.921875 138.148438 105.957031 138.292969 105.996094 C 138.4375 106.03125 138.582031 106.066406 138.730469 106.140625 C 138.875 106.175781 139.019531 106.25 139.164062 106.320312 C 139.308594 106.394531 139.417969 106.503906 139.527344 106.609375 C 139.636719 106.71875 139.707031 106.863281 139.742188 107.046875 C 139.78125 107.226562 139.816406 107.410156 139.742188 107.664062 C 139.707031 107.953125 139.597656 108.242188 139.453125 108.460938 C 139.308594 108.675781 139.128906 108.859375 138.910156 109.039062 C 138.691406 109.183594 138.4375 109.292969 138.183594 109.367188 C 137.929688 109.4375 137.640625 109.476562 137.351562 109.476562 C 136.988281 109.476562 136.664062 109.402344 136.371094 109.292969 C 136.082031 109.183594 135.828125 109.003906 135.609375 108.785156 L 136.589844 107.84375 C 136.589844 107.84375 136.84375 108.132812 136.988281 108.242188 C 137.171875 108.316406 137.351562 108.386719 137.53125 108.386719 C 137.640625 108.386719 137.714844 108.386719 137.824219 108.386719 C 137.929688 108.386719 138.003906 108.316406 138.113281 108.277344 C 138.183594 108.242188 138.257812 108.171875 138.328125 108.097656 C 138.402344 108.023438 138.4375 107.953125 138.4375 107.84375 C 138.4375 107.664062 138.4375 107.554688 138.292969 107.445312 C 138.183594 107.335938 138.039062 107.265625 137.859375 107.191406 C 137.675781 107.117188 137.496094 107.046875 137.277344 106.972656 C 137.0625 106.902344 136.878906 106.828125 136.699219 106.71875 C 136.515625 106.609375 136.371094 106.464844 136.300781 106.285156 C 136.191406 106.105469 136.15625 105.851562 136.226562 105.558594 C 136.265625 105.269531 136.371094 105.015625 136.515625 104.796875 C 136.664062 104.582031 136.84375 104.398438 137.0625 104.253906 C 137.277344 104.109375 137.53125 104 137.785156 103.929688 C 138.039062 103.855469 138.328125 103.820312 138.582031 103.820312 C 138.910156 103.820312 139.199219 103.855469 139.453125 103.964844 C 139.742188 104.039062 139.960938 104.183594 140.179688 104.398438 L 139.234375 105.304688 Z M 139.308594 105.199219 "/>
</g>
</svg>
