<?xml version="1.0" encoding="UTF-8"?>
<svg id="Layer_1" xmlns="http://www.w3.org/2000/svg" viewBox="0 0 160 48">
  <defs>
    <style>
      .cls-1 {
        fill: none;
      }

      .cls-2 {
        fill: #fff;
      }

      .cls-3 {
        fill: #ffdf25;
      }
    </style>
  </defs>
  <rect class="cls-1" width="160" height="48"/>
  <g>
    <g>
      <path class="cls-3" d="M41.59,22.86h12.34v7.02h-21.95V.74h21.95v7.08h-12.34v15.04Z"/>
      <g>
        <polygon class="cls-2" points="16.44 21.81 12.14 .74 2.34 .74 9.29 29.89 23.56 29.89 30.57 .74 20.79 .74 16.44 21.81"/>
        <path class="cls-2" d="M64.37,10.91c.08-.55.25-1.06.49-1.52.24-.46.58-.84,1.02-1.13.44-.29,1.02-.44,1.73-.44.18,0,.41.07.7.2.29.13.56.34.83.62.27.28.5.64.7,1.08.2.44.3.97.3,1.58h9.09c0-1.3-.27-2.58-.82-3.85-.55-1.26-1.32-2.39-2.33-3.39-1-1-2.21-1.8-3.64-2.41-1.42-.61-3.01-.92-4.76-.92-1.56,0-2.96.16-4.21.47-1.25.31-2.36.75-3.33,1.3-.97.55-1.8,1.22-2.5,1.98-.7.77-1.27,1.6-1.71,2.51-.45.91-.78,1.87-.99,2.89-.21,1.02-.32,2.06-.32,3.12v4.59c0,1.06.11,2.1.32,3.11.21,1.01.54,1.98.98,2.89.44.91,1.01,1.75,1.7,2.52.7.77,1.52,1.43,2.49,1.98.96.55,2.07.99,3.32,1.31,1.25.32,2.65.48,4.21.48,1.65,0,3.17-.26,4.58-.77,1.41-.51,2.63-1.23,3.67-2.16,1.04-.93,1.85-2.04,2.44-3.33.59-1.29.88-2.7.88-4.23h-9.09c0,.54-.08,1.01-.23,1.44-.15.42-.35.78-.59,1.07-.24.29-.52.52-.82.68-.31.16-.6.24-.88.24-.57,0-1.07-.12-1.49-.36-.42-.24-.77-.57-1.04-.99-.27-.41-.48-.9-.62-1.45-.14-.55-.21-1.14-.21-1.77v-5.72c0-.52.04-1.06.12-1.62Z"/>
        <polygon class="cls-2" points="79.93 7.82 87.05 7.82 87.05 29.89 96.62 29.89 96.62 7.82 103.76 7.82 103.76 .74 79.93 .74 79.93 7.82"/>
        <path class="cls-2" d="M127.5,4.49c-1.05-1.14-2.39-2.04-4.04-2.73-1.65-.68-3.64-1.02-5.97-1.02s-4.33.34-5.98,1.02c-1.65.68-3,1.59-4.05,2.73-1.05,1.14-1.81,2.44-2.29,3.91-.48,1.47-.72,3-.72,4.58v4.65c0,1.06.11,2.1.32,3.11.21,1.01.54,1.98.99,2.89.45.91,1.02,1.75,1.71,2.51.7.76,1.52,1.42,2.49,1.97.96.55,2.07.99,3.33,1.3,1.26.31,2.66.47,4.22.47,2.32,0,4.31-.34,5.95-1.01,1.65-.68,2.99-1.58,4.04-2.71,1.05-1.13,1.81-2.43,2.3-3.9.48-1.47.73-3.01.73-4.62v-4.67c0-1.58-.24-3.11-.73-4.57-.48-1.47-1.25-2.77-2.3-3.9ZM120.96,18.21c0,.64-.07,1.24-.22,1.8-.15.56-.36,1.05-.65,1.46-.29.41-.65.74-1.08.99-.43.24-.93.36-1.49.36s-1.08-.12-1.5-.36c-.43-.24-.78-.57-1.07-.99-.29-.41-.5-.9-.65-1.45-.15-.55-.22-1.15-.22-1.79v-5.61c0-.55.04-1.11.13-1.67.09-.57.26-1.08.51-1.55.25-.47.6-.85,1.05-1.14.45-.29,1.04-.44,1.75-.44.52,0,1,.11,1.43.34.43.23.79.55,1.09.97.3.41.53.92.69,1.51.16.59.24,1.25.24,1.98v5.59Z"/>
        <path class="cls-2" d="M157.1,29.05c-.22-.36-.44-.76-.65-1.2-.21-.44-.4-.91-.55-1.41-.16-.5-.26-1-.32-1.49v-2.03c-.08-.87-.18-1.59-.32-2.16-.13-.57-.33-1.06-.57-1.44-.25-.39-.57-.72-.97-1-.4-.27-.89-.55-1.47-.81,1.37-.6,2.45-1.38,3.24-2.34.8-.96,1.2-2.15,1.2-3.57v-1.84c0-1.57-.22-2.92-.66-4.05-.44-1.13-1.12-2.06-2.04-2.8-.92-.74-2.08-1.29-3.49-1.64-1.41-.35-3.08-.53-5.02-.53h-13.53v29.15h9.55v-9.26h1.32c.36,0,.71.03,1.05.08.34.05.66.17.95.35.29.19.53.45.73.8.2.35.33.83.41,1.44l.17,2.26c.08.47.2.96.37,1.47.17.51.35.98.54,1.4.18.42.35.77.51,1.04.15.27.24.41.27.41h9.86c-.15-.2-.34-.48-.56-.84ZM147.12,11.09c0,.34-.06.67-.18.97-.12.3-.28.56-.47.78-.19.22-.41.39-.67.52-.26.13-.52.19-.78.19h-3.5v-5.76h3.52c.42,0,.77.07,1.03.21.27.14.48.33.63.58.15.25.26.54.33.87.06.33.1.68.1,1.05v.59Z"/>
        <polygon class="cls-2" points="44.67 18.91 50.84 15.34 44.67 11.78 44.67 18.91"/>
      </g>
    </g>
    <polygon class="cls-2" points="155.54 35.53 153.75 35.53 155.16 36.94 2.34 36.94 2.34 38.35 155.16 38.35 153.75 39.76 155.54 39.76 157.66 37.65 155.54 35.53"/>
    <g>
      <g>
        <path class="cls-2" d="M5.37,46.02c0,.22-.03.4-.08.56-.05.16-.13.28-.24.38-.11.1-.26.17-.44.22-.18.05-.4.07-.67.07h-1.6v-4.67h1.58c.17,0,.34.02.49.05.16.03.29.09.41.17.12.08.21.18.28.31.07.13.1.28.1.46v.3c0,.11-.02.22-.05.33-.03.1-.08.2-.14.28-.06.09-.14.16-.24.21-.1.06-.21.09-.33.11.14.01.27.05.38.1.11.05.21.12.29.21.08.09.14.18.18.3.04.11.06.23.06.36v.24ZM4.81,43.62c0-.1-.02-.2-.05-.29-.03-.09-.09-.16-.16-.23-.07-.06-.17-.11-.29-.15-.12-.03-.26-.05-.44-.05h-1.13v1.75h1.17c.31,0,.53-.07.68-.2.14-.14.22-.32.22-.56v-.27ZM4.96,45.75c0-.13-.02-.24-.07-.33-.05-.09-.12-.17-.2-.23-.09-.06-.2-.11-.32-.14-.13-.03-.27-.05-.42-.05h-1.19v1.91h1.19c.15,0,.29,0,.42-.03.13-.02.23-.06.33-.12.09-.06.16-.15.21-.27.05-.12.08-.28.08-.48v-.27Z"/>
        <path class="cls-2" d="M12.33,44.05c0,.3-.08.55-.23.74-.15.19-.38.33-.67.41.09.04.18.08.25.13.07.05.13.1.19.17.05.06.1.14.13.22.04.08.07.18.09.29l.17.72c.02.1.05.19.09.29.04.1.08.18.13.25h-.43c-.04-.06-.08-.14-.12-.23-.03-.09-.06-.19-.08-.29l-.18-.72c-.03-.11-.07-.21-.13-.29-.06-.08-.13-.16-.21-.22-.08-.06-.16-.1-.26-.14-.09-.03-.19-.05-.28-.06h-1.1v1.95h-.41v-4.67h1.64c.46,0,.81.1,1.05.29.24.19.36.5.36.91v.26ZM11.92,43.81c0-.13-.02-.25-.05-.35-.03-.11-.08-.2-.16-.27-.08-.08-.18-.14-.31-.18-.13-.04-.29-.06-.48-.06h-1.22v2.03h1.14c.2,0,.37-.02.51-.07.14-.04.25-.11.33-.19.08-.08.14-.18.18-.29.04-.11.05-.24.05-.38v-.22Z"/>
        <path class="cls-2" d="M15.63,47.26l1.59-4.67h.62l1.6,4.67h-.42l-.48-1.42h-2.02l-.47,1.42h-.42ZM16.63,45.48h1.79l-.86-2.56h-.07l-.86,2.56Z"/>
        <path class="cls-2" d="M23.43,43.12h-.05v.2s.02,3.94.02,3.94h-.4v-4.67h.54l2.28,4.12h.05v-.16s-.02-3.97-.02-3.97h.41v4.67h-.55l-2.28-4.14Z"/>
        <path class="cls-2" d="M30.46,42.59h1.58c.31,0,.57.05.77.15.21.1.38.24.51.41.13.17.22.38.27.61.05.23.08.47.08.72v.88c0,.16-.01.31-.03.47-.02.15-.06.3-.11.44-.05.14-.12.27-.2.39-.08.12-.18.23-.3.31s-.26.16-.43.21c-.16.05-.35.08-.57.08h-1.59v-4.67ZM30.87,46.91h1.16c.17,0,.33-.03.48-.08.15-.05.28-.14.39-.26.11-.12.2-.27.26-.47.06-.19.1-.43.1-.71v-.92c0-.25-.03-.47-.08-.66-.05-.19-.13-.35-.23-.48-.1-.13-.23-.23-.39-.3-.15-.07-.33-.1-.54-.1h-1.16v3.97Z"/>
      </g>
      <path class="cls-2" d="M44.83,46.03c0,.39-.12.69-.37.91-.25.21-.62.32-1.12.32-.26,0-.48-.03-.68-.1-.19-.07-.36-.16-.49-.28-.13-.12-.23-.26-.29-.43-.07-.17-.1-.35-.1-.54h.39c0,.06,0,.13.02.21.01.08.04.15.07.23.03.08.08.15.13.22.06.07.13.13.21.19.09.05.19.1.31.13.12.03.27.05.43.05.2,0,.36-.02.5-.07.14-.04.25-.11.34-.18.09-.08.15-.17.19-.28.04-.11.06-.23.06-.35s-.02-.24-.05-.34c-.03-.1-.08-.19-.15-.26-.07-.07-.15-.14-.25-.19-.1-.05-.22-.1-.36-.13l-.76-.21c-.16-.05-.31-.1-.43-.16-.12-.06-.23-.14-.31-.23-.08-.09-.15-.2-.19-.33-.04-.13-.06-.28-.06-.45,0-.16.02-.31.07-.45.05-.14.13-.26.24-.36.11-.1.26-.18.44-.24.18-.06.41-.09.68-.09s.5.03.69.1c.19.06.34.16.46.27.12.12.21.26.27.43.06.17.09.35.11.56h-.39c-.01-.14-.04-.27-.07-.39-.03-.12-.09-.23-.18-.32-.08-.09-.19-.16-.34-.22-.14-.05-.32-.08-.54-.08s-.4.02-.53.07c-.13.05-.24.11-.31.18-.07.08-.12.16-.15.26-.02.1-.04.19-.04.29,0,.12.01.23.04.32.03.09.08.17.14.24.06.07.14.13.23.18.09.05.2.09.32.12l.83.23c.15.04.29.1.42.16.12.06.23.14.31.24.09.1.15.21.2.34.05.13.07.29.07.47Z"/>
      <path class="cls-2" d="M96.61,46.03c0,.39-.12.69-.37.91-.25.21-.62.32-1.12.32-.26,0-.48-.03-.68-.1-.19-.07-.36-.16-.49-.28-.13-.12-.23-.26-.29-.43-.07-.17-.1-.35-.1-.54h.39c0,.06,0,.13.02.21.01.08.04.15.07.23.03.08.08.15.13.22.06.07.13.13.21.19.09.05.19.1.31.13.12.03.27.05.43.05.2,0,.36-.02.5-.07.14-.04.25-.11.34-.18.09-.08.15-.17.19-.28.04-.11.06-.23.06-.35s-.02-.24-.05-.34c-.03-.1-.08-.19-.15-.26-.07-.07-.15-.14-.25-.19-.1-.05-.22-.1-.36-.13l-.76-.21c-.16-.05-.31-.1-.43-.16-.12-.06-.23-.14-.31-.23-.08-.09-.15-.2-.19-.33-.04-.13-.06-.28-.06-.45,0-.16.02-.31.07-.45.05-.14.13-.26.24-.36.11-.1.26-.18.44-.24.18-.06.41-.09.68-.09s.5.03.69.1c.19.06.34.16.46.27.12.12.21.26.27.43.06.17.09.35.11.56h-.39c-.01-.14-.04-.27-.07-.39-.03-.12-.09-.23-.18-.32-.08-.09-.19-.16-.34-.22-.14-.05-.32-.08-.54-.08s-.4.02-.53.07c-.13.05-.24.11-.31.18-.07.08-.12.16-.15.26-.02.1-.04.19-.04.29,0,.12.01.23.04.32.03.09.08.17.14.24.06.07.14.13.23.18.09.05.2.09.32.12l.83.23c.15.04.29.1.42.16.12.06.23.14.31.24.09.1.15.21.2.34.05.13.07.29.07.47Z"/>
      <path class="cls-2" d="M48.4,44.68c0-.18,0-.36.03-.54.02-.17.05-.34.1-.49.05-.15.11-.3.19-.43.08-.13.18-.24.31-.34.12-.09.28-.17.45-.22.18-.05.38-.08.62-.08s.44.03.62.08c.18.05.33.13.45.22.13.09.23.21.31.34.08.13.14.27.19.43.05.15.08.32.1.49.02.17.03.35.03.54v.49c0,.18,0,.36-.03.54-.02.17-.05.34-.1.49-.05.15-.11.3-.19.43-.08.13-.18.24-.31.34-.12.09-.28.17-.45.22-.18.05-.38.08-.62.08s-.44-.03-.62-.08c-.18-.05-.33-.12-.45-.22-.13-.09-.23-.2-.31-.33-.08-.13-.14-.27-.19-.42-.05-.15-.08-.31-.1-.48-.02-.17-.03-.34-.03-.51v-.55ZM50.1,46.91c.24,0,.44-.04.61-.11.16-.07.3-.18.4-.32.1-.14.17-.32.22-.53.04-.21.07-.45.07-.72v-.57c0-.29-.02-.55-.07-.77-.04-.22-.12-.4-.22-.54-.1-.14-.23-.25-.4-.32-.16-.07-.37-.1-.61-.1s-.45.04-.61.11c-.16.07-.3.18-.4.33-.1.14-.17.32-.21.54-.04.22-.06.47-.06.75v.58c0,.27.02.5.07.71.04.21.12.38.22.52.1.14.23.25.4.32.16.07.36.11.6.11Z"/>
      <path class="cls-2" d="M79.15,44.68c0-.18,0-.36.03-.54.02-.17.05-.34.1-.49.05-.15.11-.3.19-.43.08-.13.18-.24.31-.34.12-.09.28-.17.45-.22.18-.05.38-.08.62-.08s.44.03.62.08c.18.05.33.13.45.22.13.09.23.21.31.34.08.13.14.27.19.43.05.15.08.32.1.49.02.17.03.35.03.54v.49c0,.18,0,.36-.03.54-.02.17-.05.34-.1.49-.05.15-.11.3-.19.43-.08.13-.18.24-.31.34-.12.09-.28.17-.45.22-.18.05-.38.08-.62.08s-.44-.03-.62-.08c-.18-.05-.33-.12-.45-.22-.13-.09-.23-.2-.31-.33-.08-.13-.14-.27-.19-.42-.05-.15-.08-.31-.1-.48-.02-.17-.03-.34-.03-.51v-.55ZM80.85,46.91c.24,0,.44-.04.61-.11.16-.07.3-.18.4-.32.1-.14.17-.32.22-.53.04-.21.07-.45.07-.72v-.57c0-.29-.02-.55-.07-.77-.04-.22-.12-.4-.22-.54-.1-.14-.23-.25-.4-.32-.16-.07-.37-.1-.61-.1s-.45.04-.61.11c-.16.07-.3.18-.39.33-.1.14-.17.32-.21.54-.04.22-.06.47-.06.75v.58c0,.27.02.5.07.71.05.21.12.38.22.52.1.14.23.25.4.32.16.07.36.11.6.11Z"/>
      <path class="cls-2" d="M55.66,47.26v-4.67h.41v4.32h2.31v.35h-2.72Z"/>
      <path class="cls-2" d="M64.86,42.59v3.06c0,.11,0,.23-.03.35-.02.12-.05.25-.1.36-.05.12-.11.23-.19.34-.08.11-.18.2-.31.29-.12.08-.28.15-.45.2-.18.05-.38.07-.62.07s-.43-.02-.61-.07c-.18-.05-.33-.11-.45-.19-.12-.08-.23-.18-.31-.28-.08-.11-.15-.22-.2-.34-.05-.12-.08-.24-.1-.36-.02-.12-.03-.24-.03-.35v-3.06h.41v3.11c0,.07,0,.15.02.24.01.09.04.18.07.27.03.09.08.18.14.26.06.09.14.16.24.23s.21.12.34.16c.13.04.29.06.47.06.19,0,.36-.02.5-.06.14-.04.26-.09.35-.16s.17-.14.23-.23c.06-.08.1-.17.13-.26.03-.09.05-.18.06-.27.01-.09.02-.17.02-.24v-3.11h.41Z"/>
      <path class="cls-2" d="M69.91,42.93v4.33h-.41v-4.33h-1.47v-.35h3.35v.35h-1.47Z"/>
      <path class="cls-2" d="M74.85,47.26v-4.67h.41v4.67h-.41Z"/>
      <path class="cls-2" d="M86.88,43.12h-.05v.2s.02,3.94.02,3.94h-.4v-4.67h.54l2.28,4.12h.05v-.16s-.02-3.97-.02-3.97h.41v4.67h-.55l-2.28-4.14Z"/>
    </g>
  </g>
</svg>