<?xml version="1.0" encoding="UTF-8"?>
<svg xmlns="http://www.w3.org/2000/svg" xmlns:xlink="http://www.w3.org/1999/xlink" width="278px" height="83px" viewBox="0 0 276 83" version="1.1">
<g id="surface1">
<path style=" stroke:none;fill-rule:nonzero;fill:rgb(100%,87.450981%,14.509805%);fill-opacity:1;" d="M 71.742188 39.527344 L 93.027344 39.527344 L 93.027344 51.667969 L 55.164062 51.667969 L 55.164062 1.28125 L 93.027344 1.28125 L 93.027344 13.523438 L 71.742188 13.523438 Z M 71.742188 39.527344 "/>
<path style=" stroke:none;fill-rule:nonzero;fill:rgb(100%,100%,100%);fill-opacity:1;" d="M 28.359375 37.714844 L 20.941406 1.28125 L 4.035156 1.28125 L 16.023438 51.683594 L 40.640625 51.683594 L 52.734375 1.28125 L 35.863281 1.28125 Z M 28.359375 37.714844 "/>
<path style=" stroke:none;fill-rule:nonzero;fill:rgb(100%,100%,100%);fill-opacity:1;" d="M 111.039062 18.863281 C 111.175781 17.914062 111.46875 17.03125 111.882812 16.238281 C 112.296875 15.441406 112.882812 14.785156 113.644531 14.28125 C 114.402344 13.78125 115.402344 13.523438 116.628906 13.523438 C 116.9375 13.523438 117.335938 13.644531 117.835938 13.867188 C 118.335938 14.09375 118.800781 14.457031 119.265625 14.941406 C 119.730469 15.425781 120.128906 16.046875 120.472656 16.808594 C 120.820312 17.566406 120.992188 18.484375 120.992188 19.539062 L 136.671875 19.539062 C 136.671875 17.292969 136.207031 15.078125 135.257812 12.882812 C 134.308594 10.703125 132.980469 8.75 131.238281 7.019531 C 129.511719 5.292969 127.425781 3.90625 124.960938 2.851562 C 122.507812 1.796875 119.765625 1.261719 116.746094 1.261719 C 114.058594 1.261719 111.640625 1.539062 109.484375 2.074219 C 107.328125 2.609375 105.414062 3.371094 103.742188 4.324219 C 102.066406 5.273438 100.636719 6.433594 99.429688 7.746094 C 98.222656 9.078125 97.238281 10.511719 96.480469 12.085938 C 95.703125 13.660156 95.132812 15.320312 94.773438 17.085938 C 94.410156 18.847656 94.21875 20.644531 94.21875 22.480469 L 94.21875 30.417969 C 94.21875 32.25 94.410156 34.046875 94.773438 35.792969 C 95.132812 37.539062 95.703125 39.21875 96.460938 40.792969 C 97.222656 42.363281 98.203125 43.816406 99.394531 45.148438 C 100.601562 46.480469 102.015625 47.621094 103.691406 48.574219 C 105.347656 49.523438 107.261719 50.285156 109.417969 50.835938 C 111.574219 51.390625 113.988281 51.667969 116.679688 51.667969 C 119.523438 51.667969 122.148438 51.21875 124.578125 50.335938 C 127.011719 49.453125 129.117188 48.210938 130.910156 46.601562 C 132.703125 44.992188 134.101562 43.074219 135.121094 40.84375 C 136.136719 38.613281 136.636719 36.175781 136.636719 33.527344 L 120.957031 33.527344 C 120.957031 34.460938 120.820312 35.273438 120.558594 36.019531 C 120.300781 36.746094 119.957031 37.367188 119.542969 37.867188 C 119.128906 38.371094 118.644531 38.769531 118.128906 39.042969 C 117.59375 39.320312 117.09375 39.460938 116.609375 39.460938 C 115.625 39.460938 114.765625 39.253906 114.039062 38.835938 C 113.316406 38.421875 112.710938 37.851562 112.246094 37.125 C 111.78125 36.417969 111.417969 35.570312 111.175781 34.617188 C 110.933594 33.667969 110.8125 32.648438 110.8125 31.558594 L 110.8125 21.667969 C 110.8125 20.765625 110.882812 19.832031 111.019531 18.863281 Z M 111.039062 18.863281 "/>
<path style=" stroke:none;fill-rule:nonzero;fill:rgb(100%,100%,100%);fill-opacity:1;" d="M 137.878906 13.523438 L 150.160156 13.523438 L 150.160156 51.683594 L 166.667969 51.683594 L 166.667969 13.523438 L 178.984375 13.523438 L 178.984375 1.28125 L 137.878906 1.28125 Z M 137.878906 13.523438 "/>
<path style=" stroke:none;fill-rule:nonzero;fill:rgb(100%,100%,100%);fill-opacity:1;" d="M 219.9375 7.765625 C 218.125 5.792969 215.816406 4.238281 212.96875 3.042969 C 210.121094 1.867188 206.691406 1.28125 202.671875 1.28125 C 198.652344 1.28125 195.199219 1.867188 192.355469 3.042969 C 189.507812 4.21875 187.179688 5.792969 185.367188 7.765625 C 183.558594 9.734375 182.246094 11.984375 181.417969 14.523438 C 180.589844 17.066406 180.175781 19.710938 180.175781 22.445312 L 180.175781 30.484375 C 180.175781 32.316406 180.367188 34.117188 180.726562 35.863281 C 181.089844 37.609375 181.660156 39.285156 182.4375 40.859375 C 183.210938 42.433594 184.195312 43.886719 185.386719 45.199219 C 186.59375 46.515625 188.007812 47.65625 189.679688 48.605469 C 191.335938 49.558594 193.25 50.320312 195.425781 50.855469 C 197.597656 51.390625 200.015625 51.667969 202.703125 51.667969 C 206.707031 51.667969 210.140625 51.078125 212.96875 49.921875 C 215.816406 48.746094 218.125 47.1875 219.9375 45.234375 C 221.75 43.28125 223.058594 41.03125 223.90625 38.492188 C 224.734375 35.949219 225.164062 33.285156 225.164062 30.503906 L 225.164062 22.425781 C 225.164062 19.695312 224.75 17.050781 223.90625 14.523438 C 223.078125 11.984375 221.75 9.734375 219.9375 7.78125 Z M 208.65625 31.488281 C 208.65625 32.59375 208.535156 33.632812 208.277344 34.601562 C 208.019531 35.570312 207.65625 36.417969 207.15625 37.125 C 206.65625 37.835938 206.035156 38.40625 205.292969 38.835938 C 204.550781 39.253906 203.6875 39.460938 202.722656 39.460938 C 201.757812 39.460938 200.859375 39.253906 200.132812 38.835938 C 199.394531 38.421875 198.789062 37.851562 198.289062 37.125 C 197.789062 36.417969 197.425781 35.570312 197.167969 34.617188 C 196.910156 33.667969 196.789062 32.628906 196.789062 31.523438 L 196.789062 21.820312 C 196.789062 20.871094 196.855469 19.902344 197.011719 18.933594 C 197.167969 17.949219 197.460938 17.066406 197.890625 16.253906 C 198.324219 15.441406 198.925781 14.785156 199.703125 14.28125 C 200.480469 13.78125 201.496094 13.523438 202.722656 13.523438 C 203.617188 13.523438 204.445312 13.710938 205.1875 14.109375 C 205.929688 14.507812 206.550781 15.0625 207.070312 15.789062 C 207.585938 16.496094 207.984375 17.378906 208.257812 18.398438 C 208.535156 19.417969 208.671875 20.558594 208.671875 21.820312 L 208.671875 31.488281 Z M 208.65625 31.488281 "/>
<path style=" stroke:none;fill-rule:nonzero;fill:rgb(100%,100%,100%);fill-opacity:1;" d="M 270.996094 50.230469 C 270.617188 49.609375 270.238281 48.917969 269.875 48.15625 C 269.515625 47.394531 269.1875 46.582031 268.925781 45.71875 C 268.652344 44.855469 268.480469 43.988281 268.375 43.144531 L 268.375 39.632812 C 268.238281 38.128906 268.066406 36.882812 267.824219 35.898438 C 267.597656 34.910156 267.253906 34.066406 266.839844 33.40625 C 266.410156 32.734375 265.855469 32.164062 265.167969 31.679688 C 264.476562 31.210938 263.632812 30.726562 262.632812 30.277344 C 264.996094 29.238281 266.859375 27.890625 268.21875 26.230469 C 269.601562 24.570312 270.289062 22.515625 270.289062 20.058594 L 270.289062 16.875 C 270.289062 14.160156 269.910156 11.828125 269.152344 9.875 C 268.394531 7.917969 267.21875 6.3125 265.632812 5.03125 C 264.046875 3.753906 262.042969 2.800781 259.613281 2.195312 C 257.179688 1.589844 254.300781 1.28125 250.953125 1.28125 L 227.613281 1.28125 L 227.613281 51.683594 L 244.085938 51.683594 L 244.085938 35.671875 L 246.363281 35.671875 C 246.984375 35.671875 247.589844 35.722656 248.175781 35.8125 C 248.761719 35.898438 249.3125 36.105469 249.816406 36.417969 C 250.316406 36.746094 250.730469 37.195312 251.074219 37.800781 C 251.417969 38.40625 251.644531 39.234375 251.78125 40.289062 L 252.074219 44.199219 C 252.210938 45.011719 252.417969 45.859375 252.710938 46.738281 C 253.003906 47.621094 253.316406 48.433594 253.644531 49.160156 C 253.953125 49.886719 254.246094 50.492188 254.523438 50.957031 C 254.78125 51.425781 254.9375 51.667969 254.988281 51.667969 L 271.996094 51.667969 C 271.738281 51.320312 271.410156 50.835938 271.03125 50.214844 Z M 253.78125 19.175781 C 253.78125 19.765625 253.679688 20.335938 253.472656 20.855469 C 253.265625 21.371094 252.988281 21.820312 252.660156 22.203125 C 252.332031 22.582031 251.953125 22.875 251.503906 23.101562 C 251.054688 23.328125 250.609375 23.429688 250.160156 23.429688 L 244.121094 23.429688 L 244.121094 13.46875 L 250.195312 13.46875 C 250.917969 13.46875 251.523438 13.589844 251.972656 13.832031 C 252.4375 14.074219 252.796875 14.402344 253.058594 14.835938 C 253.316406 15.269531 253.507812 15.769531 253.625 16.339844 C 253.730469 16.910156 253.800781 17.515625 253.800781 18.15625 L 253.800781 19.175781 Z M 253.78125 19.175781 "/>
<path style=" stroke:none;fill-rule:nonzero;fill:rgb(100%,100%,100%);fill-opacity:1;" d="M 77.054688 32.699219 L 87.699219 26.527344 L 77.054688 20.371094 Z M 77.054688 32.699219 "/>
<path style=" stroke:none;fill-rule:nonzero;fill:rgb(100%,100%,100%);fill-opacity:1;" d="M 268.304688 61.4375 L 265.21875 61.4375 L 267.652344 63.875 L 4.035156 63.875 L 4.035156 66.3125 L 267.652344 66.3125 L 265.21875 68.75 L 268.304688 68.75 L 271.964844 65.101562 Z M 268.304688 61.4375 "/>
<path style=" stroke:none;fill-rule:nonzero;fill:rgb(100%,100%,100%);fill-opacity:1;" d="M 9.261719 79.578125 C 9.261719 79.957031 9.210938 80.269531 9.125 80.542969 C 9.039062 80.820312 8.902344 81.027344 8.710938 81.203125 C 8.523438 81.375 8.261719 81.496094 7.953125 81.582031 C 7.640625 81.667969 7.261719 81.703125 6.796875 81.703125 L 4.035156 81.703125 L 4.035156 73.628906 L 6.761719 73.628906 C 7.054688 73.628906 7.347656 73.664062 7.605469 73.714844 C 7.882812 73.765625 8.109375 73.871094 8.316406 74.007812 C 8.523438 74.148438 8.675781 74.320312 8.796875 74.542969 C 8.917969 74.769531 8.96875 75.027344 8.96875 75.339844 L 8.96875 75.859375 C 8.96875 76.046875 8.933594 76.238281 8.882812 76.429688 C 8.832031 76.601562 8.746094 76.773438 8.640625 76.914062 C 8.539062 77.070312 8.402344 77.191406 8.226562 77.277344 C 8.054688 77.378906 7.867188 77.433594 7.660156 77.464844 C 7.902344 77.484375 8.125 77.554688 8.316406 77.640625 C 8.503906 77.726562 8.675781 77.847656 8.816406 78.003906 C 8.953125 78.160156 9.054688 78.3125 9.125 78.519531 C 9.195312 78.710938 9.230469 78.917969 9.230469 79.144531 L 9.230469 79.558594 Z M 8.296875 75.425781 C 8.296875 75.253906 8.261719 75.082031 8.210938 74.925781 C 8.160156 74.769531 8.054688 74.648438 7.933594 74.527344 C 7.8125 74.421875 7.640625 74.335938 7.433594 74.269531 C 7.226562 74.214844 6.984375 74.179688 6.675781 74.179688 L 4.726562 74.179688 L 4.726562 77.207031 L 6.746094 77.207031 C 7.28125 77.207031 7.660156 77.085938 7.917969 76.863281 C 8.160156 76.621094 8.296875 76.308594 8.296875 75.894531 Z M 8.554688 79.109375 C 8.554688 78.882812 8.523438 78.695312 8.433594 78.539062 C 8.347656 78.382812 8.226562 78.246094 8.089844 78.140625 C 7.933594 78.039062 7.746094 77.949219 7.539062 77.898438 C 7.3125 77.847656 7.074219 77.8125 6.8125 77.8125 L 4.761719 77.8125 L 4.761719 81.113281 L 6.8125 81.113281 C 7.074219 81.113281 7.3125 81.113281 7.539062 81.0625 C 7.761719 81.027344 7.933594 80.960938 8.109375 80.855469 C 8.261719 80.753906 8.382812 80.597656 8.46875 80.390625 C 8.554688 80.179688 8.609375 79.90625 8.609375 79.558594 L 8.609375 79.09375 Z M 8.554688 79.109375 "/>
<path style=" stroke:none;fill-rule:nonzero;fill:rgb(100%,100%,100%);fill-opacity:1;" d="M 21.269531 76.167969 C 21.269531 76.6875 21.132812 77.121094 20.871094 77.449219 C 20.613281 77.777344 20.21875 78.019531 19.714844 78.160156 C 19.871094 78.226562 20.027344 78.296875 20.148438 78.382812 C 20.269531 78.46875 20.371094 78.554688 20.476562 78.675781 C 20.5625 78.78125 20.648438 78.917969 20.699219 79.058594 C 20.769531 79.195312 20.820312 79.367188 20.855469 79.558594 L 21.148438 80.804688 C 21.183594 80.976562 21.234375 81.132812 21.304688 81.304688 C 21.371094 81.476562 21.441406 81.617188 21.527344 81.738281 L 20.785156 81.738281 C 20.71875 81.632812 20.648438 81.496094 20.578125 81.339844 C 20.527344 81.183594 20.476562 81.011719 20.441406 80.839844 L 20.128906 79.59375 C 20.078125 79.402344 20.011719 79.230469 19.90625 79.09375 C 19.804688 78.953125 19.683594 78.816406 19.542969 78.710938 C 19.40625 78.609375 19.269531 78.539062 19.097656 78.46875 C 18.941406 78.417969 18.769531 78.382812 18.613281 78.367188 L 16.714844 78.367188 L 16.714844 81.738281 L 16.007812 81.738281 L 16.007812 73.664062 L 18.835938 73.664062 C 19.628906 73.664062 20.234375 73.835938 20.648438 74.164062 C 21.0625 74.492188 21.269531 75.027344 21.269531 75.738281 L 21.269531 76.1875 Z M 20.5625 75.753906 C 20.5625 75.53125 20.527344 75.324219 20.476562 75.148438 C 20.425781 74.960938 20.335938 74.804688 20.199219 74.683594 C 20.0625 74.542969 19.890625 74.441406 19.664062 74.371094 C 19.441406 74.300781 19.164062 74.269531 18.835938 74.269531 L 16.734375 74.269531 L 16.734375 77.777344 L 18.699219 77.777344 C 19.042969 77.777344 19.335938 77.742188 19.578125 77.65625 C 19.820312 77.585938 20.011719 77.464844 20.148438 77.328125 C 20.285156 77.191406 20.390625 77.015625 20.457031 76.828125 C 20.527344 76.636719 20.542969 76.410156 20.542969 76.167969 L 20.542969 75.789062 Z M 20.5625 75.753906 "/>
<path style=" stroke:none;fill-rule:nonzero;fill:rgb(100%,100%,100%);fill-opacity:1;" d="M 26.960938 81.71875 L 29.703125 73.644531 L 30.773438 73.644531 L 33.535156 81.71875 L 32.808594 81.71875 L 31.980469 79.265625 L 28.496094 79.265625 L 27.6875 81.71875 Z M 28.6875 78.640625 L 31.773438 78.640625 L 30.289062 74.214844 L 30.171875 74.214844 Z M 28.6875 78.640625 "/>
<path style=" stroke:none;fill-rule:nonzero;fill:rgb(100%,100%,100%);fill-opacity:1;" d="M 40.417969 74.5625 L 40.332031 74.5625 L 40.332031 74.90625 C 40.332031 74.90625 40.363281 81.71875 40.363281 81.71875 L 39.675781 81.71875 L 39.675781 73.644531 L 40.605469 73.644531 L 44.539062 80.769531 L 44.625 80.769531 L 44.625 80.492188 C 44.625 80.492188 44.589844 73.628906 44.589844 73.628906 L 45.296875 73.628906 L 45.296875 81.703125 L 44.351562 81.703125 L 40.417969 74.542969 Z M 40.417969 74.5625 "/>
<path style=" stroke:none;fill-rule:nonzero;fill:rgb(100%,100%,100%);fill-opacity:1;" d="M 52.542969 73.644531 L 55.269531 73.644531 C 55.804688 73.644531 56.253906 73.730469 56.597656 73.90625 C 56.960938 74.078125 57.253906 74.320312 57.476562 74.613281 C 57.703125 74.90625 57.855469 75.269531 57.941406 75.667969 C 58.027344 76.066406 58.082031 76.480469 58.082031 76.914062 L 58.082031 78.433594 C 58.082031 78.710938 58.0625 78.972656 58.027344 79.246094 C 57.996094 79.507812 57.925781 79.765625 57.839844 80.007812 C 57.753906 80.25 57.632812 80.476562 57.496094 80.683594 C 57.355469 80.890625 57.183594 81.082031 56.976562 81.21875 C 56.769531 81.355469 56.527344 81.496094 56.234375 81.582031 C 55.960938 81.667969 55.632812 81.71875 55.25 81.71875 L 52.507812 81.71875 L 52.507812 73.644531 Z M 53.25 81.113281 L 55.25 81.113281 C 55.546875 81.113281 55.820312 81.0625 56.078125 80.976562 C 56.339844 80.890625 56.5625 80.734375 56.753906 80.527344 C 56.941406 80.320312 57.097656 80.058594 57.199219 79.714844 C 57.304688 79.386719 57.375 78.972656 57.375 78.488281 L 57.375 76.894531 C 57.375 76.464844 57.320312 76.082031 57.234375 75.753906 C 57.148438 75.425781 57.011719 75.148438 56.839844 74.925781 C 56.667969 74.699219 56.441406 74.527344 56.164062 74.40625 C 55.90625 74.285156 55.597656 74.234375 55.234375 74.234375 L 53.234375 74.234375 L 53.234375 81.097656 Z M 53.25 81.113281 "/>
<path style=" stroke:none;fill-rule:nonzero;fill:rgb(100%,100%,100%);fill-opacity:1;" d="M 77.332031 79.59375 C 77.332031 80.269531 77.125 80.785156 76.695312 81.167969 C 76.261719 81.53125 75.625 81.71875 74.761719 81.71875 C 74.3125 81.71875 73.933594 81.667969 73.589844 81.546875 C 73.261719 81.425781 72.96875 81.269531 72.742188 81.0625 C 72.519531 80.855469 72.347656 80.613281 72.242188 80.320312 C 72.121094 80.027344 72.070312 79.714844 72.070312 79.386719 L 72.742188 79.386719 C 72.742188 79.488281 72.742188 79.609375 72.777344 79.75 C 72.796875 79.886719 72.847656 80.007812 72.898438 80.148438 C 72.949219 80.285156 73.035156 80.40625 73.121094 80.527344 C 73.226562 80.648438 73.347656 80.753906 73.484375 80.855469 C 73.640625 80.941406 73.8125 81.027344 74.019531 81.082031 C 74.226562 81.132812 74.484375 81.167969 74.761719 81.167969 C 75.105469 81.167969 75.382812 81.132812 75.625 81.046875 C 75.867188 80.976562 76.054688 80.855469 76.210938 80.734375 C 76.367188 80.597656 76.46875 80.441406 76.539062 80.25 C 76.605469 80.058594 76.640625 79.851562 76.640625 79.644531 C 76.640625 79.4375 76.605469 79.230469 76.554688 79.058594 C 76.503906 78.882812 76.417969 78.730469 76.296875 78.609375 C 76.175781 78.488281 76.039062 78.367188 75.867188 78.28125 C 75.691406 78.191406 75.484375 78.105469 75.246094 78.054688 L 73.933594 77.691406 C 73.65625 77.605469 73.398438 77.519531 73.191406 77.414062 C 72.984375 77.3125 72.796875 77.171875 72.65625 77.015625 C 72.519531 76.863281 72.398438 76.671875 72.328125 76.445312 C 72.261719 76.222656 72.226562 75.960938 72.226562 75.667969 C 72.226562 75.390625 72.261719 75.132812 72.347656 74.890625 C 72.433594 74.648438 72.570312 74.441406 72.761719 74.269531 C 72.949219 74.09375 73.210938 73.957031 73.519531 73.851562 C 73.828125 73.75 74.226562 73.695312 74.691406 73.695312 C 75.160156 73.695312 75.554688 73.75 75.882812 73.871094 C 76.210938 73.972656 76.46875 74.148438 76.675781 74.335938 C 76.882812 74.542969 77.039062 74.785156 77.140625 75.082031 C 77.246094 75.375 77.296875 75.6875 77.332031 76.046875 L 76.660156 76.046875 C 76.640625 75.808594 76.589844 75.582031 76.539062 75.375 C 76.488281 75.167969 76.382812 74.976562 76.226562 74.820312 C 76.089844 74.664062 75.898438 74.542969 75.640625 74.441406 C 75.398438 74.355469 75.089844 74.300781 74.710938 74.300781 C 74.332031 74.300781 74.019531 74.335938 73.796875 74.421875 C 73.570312 74.511719 73.382812 74.613281 73.261719 74.734375 C 73.140625 74.871094 73.054688 75.011719 73.003906 75.183594 C 72.96875 75.355469 72.933594 75.511719 72.933594 75.6875 C 72.933594 75.894531 72.949219 76.082031 73.003906 76.238281 C 73.054688 76.394531 73.140625 76.53125 73.242188 76.652344 C 73.347656 76.773438 73.484375 76.878906 73.640625 76.964844 C 73.796875 77.050781 73.984375 77.121094 74.191406 77.171875 L 75.625 77.570312 C 75.882812 77.640625 76.125 77.742188 76.347656 77.847656 C 76.554688 77.949219 76.746094 78.089844 76.882812 78.261719 C 77.039062 78.433594 77.140625 78.625 77.226562 78.851562 C 77.316406 79.074219 77.347656 79.351562 77.347656 79.664062 Z M 77.332031 79.59375 "/>
<path style=" stroke:none;fill-rule:nonzero;fill:rgb(100%,100%,100%);fill-opacity:1;" d="M 166.652344 79.59375 C 166.652344 80.269531 166.445312 80.785156 166.015625 81.167969 C 165.582031 81.53125 164.945312 81.71875 164.082031 81.71875 C 163.632812 81.71875 163.253906 81.667969 162.910156 81.546875 C 162.582031 81.425781 162.289062 81.269531 162.0625 81.0625 C 161.839844 80.855469 161.667969 80.613281 161.5625 80.320312 C 161.441406 80.027344 161.390625 79.714844 161.390625 79.386719 L 162.0625 79.386719 C 162.0625 79.488281 162.0625 79.609375 162.097656 79.75 C 162.117188 79.886719 162.167969 80.007812 162.21875 80.148438 C 162.269531 80.285156 162.355469 80.40625 162.441406 80.527344 C 162.546875 80.648438 162.667969 80.753906 162.804688 80.855469 C 162.960938 80.941406 163.132812 81.027344 163.339844 81.082031 C 163.546875 81.132812 163.804688 81.167969 164.082031 81.167969 C 164.425781 81.167969 164.703125 81.132812 164.945312 81.046875 C 165.1875 80.976562 165.375 80.855469 165.53125 80.734375 C 165.6875 80.597656 165.789062 80.441406 165.859375 80.25 C 165.929688 80.058594 165.960938 79.851562 165.960938 79.644531 C 165.960938 79.4375 165.929688 79.230469 165.875 79.058594 C 165.824219 78.882812 165.738281 78.730469 165.617188 78.609375 C 165.496094 78.488281 165.359375 78.367188 165.1875 78.28125 C 165.011719 78.191406 164.804688 78.105469 164.566406 78.054688 L 163.253906 77.691406 C 162.976562 77.605469 162.71875 77.519531 162.511719 77.414062 C 162.304688 77.3125 162.117188 77.171875 161.976562 77.015625 C 161.839844 76.863281 161.71875 76.671875 161.648438 76.445312 C 161.582031 76.222656 161.546875 75.960938 161.546875 75.667969 C 161.546875 75.390625 161.582031 75.132812 161.667969 74.890625 C 161.753906 74.648438 161.890625 74.441406 162.082031 74.269531 C 162.269531 74.09375 162.53125 73.957031 162.839844 73.851562 C 163.152344 73.75 163.546875 73.695312 164.011719 73.695312 C 164.480469 73.695312 164.875 73.75 165.203125 73.871094 C 165.53125 73.972656 165.789062 74.148438 165.996094 74.335938 C 166.203125 74.542969 166.359375 74.785156 166.460938 75.082031 C 166.566406 75.375 166.617188 75.6875 166.652344 76.046875 L 165.980469 76.046875 C 165.960938 75.808594 165.910156 75.582031 165.859375 75.375 C 165.808594 75.167969 165.703125 74.976562 165.546875 74.820312 C 165.410156 74.664062 165.21875 74.542969 164.960938 74.441406 C 164.71875 74.355469 164.410156 74.300781 164.03125 74.300781 C 163.652344 74.300781 163.339844 74.335938 163.117188 74.421875 C 162.890625 74.511719 162.703125 74.613281 162.582031 74.734375 C 162.460938 74.871094 162.375 75.011719 162.324219 75.183594 C 162.289062 75.355469 162.253906 75.511719 162.253906 75.6875 C 162.253906 75.894531 162.269531 76.082031 162.324219 76.238281 C 162.375 76.394531 162.460938 76.53125 162.5625 76.652344 C 162.667969 76.773438 162.804688 76.878906 162.960938 76.964844 C 163.117188 77.050781 163.304688 77.121094 163.511719 77.171875 L 164.945312 77.570312 C 165.203125 77.640625 165.445312 77.742188 165.667969 77.847656 C 165.875 77.949219 166.066406 78.089844 166.203125 78.261719 C 166.359375 78.433594 166.460938 78.625 166.546875 78.851562 C 166.636719 79.074219 166.667969 79.351562 166.667969 79.664062 Z M 166.652344 79.59375 "/>
<path style=" stroke:none;fill-rule:nonzero;fill:rgb(100%,100%,100%);fill-opacity:1;" d="M 83.488281 77.257812 C 83.488281 76.949219 83.488281 76.636719 83.542969 76.324219 C 83.578125 76.03125 83.628906 75.738281 83.714844 75.476562 C 83.800781 75.21875 83.902344 74.960938 84.042969 74.734375 C 84.179688 74.511719 84.351562 74.320312 84.578125 74.148438 C 84.785156 73.992188 85.058594 73.851562 85.351562 73.765625 C 85.664062 73.679688 86.007812 73.628906 86.421875 73.628906 C 86.835938 73.628906 87.179688 73.679688 87.492188 73.765625 C 87.800781 73.851562 88.0625 73.992188 88.269531 74.148438 C 88.492188 74.300781 88.664062 74.511719 88.804688 74.734375 C 88.941406 74.960938 89.042969 75.203125 89.128906 75.476562 C 89.21875 75.738281 89.269531 76.03125 89.304688 76.324219 C 89.335938 76.621094 89.355469 76.929688 89.355469 77.257812 L 89.355469 78.105469 C 89.355469 78.417969 89.355469 78.730469 89.304688 79.039062 C 89.269531 79.335938 89.21875 79.628906 89.128906 79.886719 C 89.042969 80.148438 88.941406 80.40625 88.804688 80.632812 C 88.664062 80.855469 88.492188 81.046875 88.269531 81.21875 C 88.0625 81.375 87.785156 81.511719 87.492188 81.597656 C 87.179688 81.6875 86.835938 81.738281 86.421875 81.738281 C 86.007812 81.738281 85.664062 81.6875 85.351562 81.597656 C 85.042969 81.511719 84.785156 81.390625 84.578125 81.21875 C 84.351562 81.0625 84.179688 80.875 84.042969 80.648438 C 83.902344 80.421875 83.800781 80.179688 83.714844 79.921875 C 83.628906 79.664062 83.578125 79.386719 83.542969 79.09375 C 83.507812 78.796875 83.488281 78.503906 83.488281 78.210938 Z M 86.421875 81.113281 C 86.835938 81.113281 87.179688 81.046875 87.476562 80.925781 C 87.75 80.804688 87.992188 80.613281 88.164062 80.371094 C 88.335938 80.128906 88.457031 79.816406 88.542969 79.457031 C 88.613281 79.09375 88.664062 78.675781 88.664062 78.210938 L 88.664062 77.222656 C 88.664062 76.722656 88.628906 76.273438 88.542969 75.894531 C 88.476562 75.511719 88.335938 75.203125 88.164062 74.960938 C 87.992188 74.71875 87.769531 74.527344 87.476562 74.40625 C 87.199219 74.285156 86.835938 74.234375 86.421875 74.234375 C 86.007812 74.234375 85.644531 74.300781 85.371094 74.421875 C 85.09375 74.542969 84.851562 74.734375 84.679688 74.992188 C 84.507812 75.234375 84.386719 75.546875 84.316406 75.925781 C 84.25 76.308594 84.214844 76.742188 84.214844 77.222656 L 84.214844 78.226562 C 84.214844 78.695312 84.25 79.09375 84.335938 79.457031 C 84.402344 79.816406 84.542969 80.113281 84.714844 80.355469 C 84.886719 80.597656 85.113281 80.785156 85.40625 80.90625 C 85.679688 81.027344 86.027344 81.097656 86.441406 81.097656 Z M 86.421875 81.113281 "/>
<path style=" stroke:none;fill-rule:nonzero;fill:rgb(100%,100%,100%);fill-opacity:1;" d="M 136.535156 77.257812 C 136.535156 76.949219 136.535156 76.636719 136.585938 76.324219 C 136.621094 76.03125 136.671875 75.738281 136.757812 75.476562 C 136.84375 75.21875 136.949219 74.960938 137.085938 74.734375 C 137.222656 74.511719 137.394531 74.320312 137.621094 74.148438 C 137.828125 73.992188 138.101562 73.851562 138.398438 73.765625 C 138.707031 73.679688 139.050781 73.628906 139.464844 73.628906 C 139.878906 73.628906 140.226562 73.679688 140.535156 73.765625 C 140.847656 73.851562 141.105469 73.992188 141.3125 74.148438 C 141.535156 74.300781 141.707031 74.511719 141.847656 74.734375 C 141.984375 74.960938 142.089844 75.203125 142.175781 75.476562 C 142.261719 75.738281 142.3125 76.03125 142.347656 76.324219 C 142.382812 76.621094 142.398438 76.929688 142.398438 77.257812 L 142.398438 78.105469 C 142.398438 78.417969 142.398438 78.730469 142.347656 79.039062 C 142.3125 79.335938 142.261719 79.628906 142.175781 79.886719 C 142.089844 80.148438 141.984375 80.40625 141.847656 80.632812 C 141.707031 80.855469 141.535156 81.046875 141.3125 81.21875 C 141.105469 81.375 140.828125 81.511719 140.535156 81.597656 C 140.226562 81.6875 139.878906 81.738281 139.464844 81.738281 C 139.050781 81.738281 138.707031 81.6875 138.398438 81.597656 C 138.085938 81.511719 137.828125 81.390625 137.621094 81.21875 C 137.394531 81.0625 137.222656 80.875 137.085938 80.648438 C 136.949219 80.421875 136.84375 80.179688 136.757812 79.921875 C 136.671875 79.664062 136.621094 79.386719 136.585938 79.09375 C 136.550781 78.796875 136.535156 78.503906 136.535156 78.210938 Z M 139.464844 81.113281 C 139.878906 81.113281 140.226562 81.046875 140.519531 80.925781 C 140.792969 80.804688 141.035156 80.613281 141.207031 80.371094 C 141.382812 80.128906 141.5 79.816406 141.589844 79.457031 C 141.65625 79.09375 141.707031 78.675781 141.707031 78.210938 L 141.707031 77.222656 C 141.707031 76.722656 141.675781 76.273438 141.589844 75.894531 C 141.519531 75.511719 141.382812 75.203125 141.207031 74.960938 C 141.035156 74.71875 140.8125 74.527344 140.519531 74.40625 C 140.242188 74.285156 139.878906 74.234375 139.464844 74.234375 C 139.050781 74.234375 138.691406 74.300781 138.414062 74.421875 C 138.136719 74.542969 137.898438 74.734375 137.742188 74.992188 C 137.570312 75.234375 137.449219 75.546875 137.378906 75.925781 C 137.308594 76.308594 137.277344 76.742188 137.277344 77.222656 L 137.277344 78.226562 C 137.277344 78.695312 137.308594 79.09375 137.394531 79.457031 C 137.484375 79.816406 137.601562 80.113281 137.777344 80.355469 C 137.949219 80.597656 138.171875 80.785156 138.464844 80.90625 C 138.742188 81.027344 139.085938 81.097656 139.5 81.097656 Z M 139.464844 81.113281 "/>
<path style=" stroke:none;fill-rule:nonzero;fill:rgb(100%,100%,100%);fill-opacity:1;" d="M 96.011719 81.71875 L 96.011719 73.644531 L 96.722656 73.644531 L 96.722656 81.113281 L 100.707031 81.113281 L 100.707031 81.71875 Z M 96.011719 81.71875 "/>
<path style=" stroke:none;fill-rule:nonzero;fill:rgb(100%,100%,100%);fill-opacity:1;" d="M 111.882812 73.644531 L 111.882812 78.9375 C 111.882812 79.125 111.882812 79.335938 111.832031 79.542969 C 111.796875 79.75 111.746094 79.972656 111.660156 80.164062 C 111.574219 80.371094 111.46875 80.5625 111.332031 80.753906 C 111.195312 80.941406 111.019531 81.097656 110.796875 81.253906 C 110.589844 81.390625 110.3125 81.511719 110.019531 81.597656 C 109.710938 81.6875 109.363281 81.71875 108.949219 81.71875 C 108.535156 81.71875 108.210938 81.6875 107.898438 81.597656 C 107.589844 81.511719 107.328125 81.410156 107.121094 81.269531 C 106.914062 81.132812 106.726562 80.960938 106.585938 80.785156 C 106.449219 80.597656 106.328125 80.40625 106.242188 80.199219 C 106.15625 79.992188 106.105469 79.785156 106.070312 79.578125 C 106.035156 79.367188 106.019531 79.160156 106.019531 78.972656 L 106.019531 73.679688 L 106.726562 73.679688 L 106.726562 79.058594 C 106.726562 79.179688 106.726562 79.316406 106.761719 79.472656 C 106.777344 79.628906 106.828125 79.785156 106.882812 79.9375 C 106.933594 80.09375 107.019531 80.25 107.121094 80.390625 C 107.226562 80.542969 107.363281 80.664062 107.535156 80.785156 C 107.710938 80.90625 107.898438 80.996094 108.121094 81.0625 C 108.347656 81.132812 108.625 81.167969 108.933594 81.167969 C 109.261719 81.167969 109.554688 81.132812 109.796875 81.0625 C 110.039062 80.996094 110.246094 80.90625 110.398438 80.785156 C 110.554688 80.664062 110.691406 80.542969 110.796875 80.390625 C 110.898438 80.25 110.96875 80.09375 111.019531 79.9375 C 111.074219 79.785156 111.105469 79.628906 111.125 79.472656 C 111.140625 79.316406 111.160156 79.179688 111.160156 79.058594 L 111.160156 73.679688 L 111.867188 73.679688 Z M 111.882812 73.644531 "/>
<path style=" stroke:none;fill-rule:nonzero;fill:rgb(100%,100%,100%);fill-opacity:1;" d="M 120.59375 74.234375 L 120.59375 81.71875 L 119.886719 81.71875 L 119.886719 74.234375 L 117.351562 74.234375 L 117.351562 73.628906 L 123.128906 73.628906 L 123.128906 74.234375 Z M 120.59375 74.234375 "/>
<path style=" stroke:none;fill-rule:nonzero;fill:rgb(100%,100%,100%);fill-opacity:1;" d="M 129.117188 81.71875 L 129.117188 73.644531 L 129.824219 73.644531 L 129.824219 81.71875 Z M 129.117188 81.71875 "/>
<path style=" stroke:none;fill-rule:nonzero;fill:rgb(100%,100%,100%);fill-opacity:1;" d="M 149.867188 74.5625 L 149.78125 74.5625 L 149.78125 74.90625 C 149.78125 74.90625 149.816406 81.71875 149.816406 81.71875 L 149.125 81.71875 L 149.125 73.644531 L 150.058594 73.644531 L 153.992188 80.769531 L 154.078125 80.769531 L 154.078125 80.492188 C 154.078125 80.492188 154.042969 73.628906 154.042969 73.628906 L 154.75 73.628906 L 154.75 81.703125 L 153.800781 81.703125 L 149.867188 74.542969 Z M 149.867188 74.5625 "/>
</g>
</svg>
